<svg width="176" height="183" viewBox="0 0 176 183" fill="none" xmlns="http://www.w3.org/2000/svg">
<path d="M174.146 69.0341H125.927C126.273 64.9291 126.042 61.2287 125.233 57.9331C124.423 54.6375 123.036 51.8045 121.07 49.434C119.104 47.0056 116.531 45.1555 113.351 43.8835C110.171 42.6115 106.384 41.9755 101.99 41.9755C93.5487 41.9755 86.0036 44.0858 79.3545 48.3065C72.7055 52.4694 67.184 58.4535 62.7898 66.2589C58.3957 74.0064 55.2736 83.2572 53.4234 94.0113C51.8045 104.418 51.7467 113.062 53.2499 119.942C54.811 126.823 57.8464 131.968 62.3562 135.38C66.9238 138.791 72.8501 140.497 80.1351 140.497C84.9917 140.497 89.4437 139.918 93.4909 138.762C97.596 137.606 101.238 135.958 104.418 133.819C107.656 131.622 110.403 129.02 112.657 126.013C114.97 122.949 116.734 119.567 117.948 115.866H166.514C164.664 123.383 161.369 131.072 156.628 138.935C151.887 146.741 145.758 153.939 138.242 160.53C130.725 167.064 121.879 172.354 111.703 176.401C101.528 180.448 90.0797 182.472 77.3598 182.472C60.7084 182.472 46.3408 178.83 34.2569 171.545C22.2309 164.26 13.5004 153.621 8.06557 139.629C2.68854 125.637 1.61891 108.581 4.85669 88.4608C8.09447 69.0341 14.4833 52.7585 24.0232 39.6339C33.5631 26.5093 45.1555 16.6225 58.8004 9.97352C72.4454 3.32451 86.9575 3.15847e-06 102.337 3.15847e-06C113.958 3.15847e-06 124.365 1.53217 133.558 4.59649C142.809 7.66082 150.586 12.1417 156.888 18.0391C163.248 23.8786 167.931 31.0769 170.937 39.6339C173.944 48.1909 175.014 57.991 174.146 69.0341Z" fill="white"/>
</svg>
