<svg width="151" height="151" viewBox="0 0 151 151" fill="none" xmlns="http://www.w3.org/2000/svg">
<path fill-rule="evenodd" clip-rule="evenodd" d="M131.653 125.991C107.374 152.955 67.9732 158.206 37.8828 140.463L63.5813 111.922C77.4157 116.75 93.4032 113.175 103.822 101.604C114.24 90.0333 116.124 73.7597 109.877 60.5057L136.245 31.2214C157.036 59.2924 155.932 99.0259 131.653 125.991ZM15.5885 120.389C-5.20185 92.3185 -4.09779 52.5854 20.1811 25.621C44.4599 -1.34339 83.86 -6.59464 113.95 11.1477L87.2901 40.7568C73.7001 36.457 58.2453 40.1363 48.0859 51.4195C37.9265 62.7026 35.8828 78.4573 41.5796 91.5234L15.5885 120.389Z" fill="black"/>
</svg>
