<svg width="18" height="19" viewBox="0 0 18 19" xmlns="http://www.w3.org/2000/svg">
<path d="M9.0222 18.5201C7.71849 18.5201 6.52072 18.3082 5.42886 17.8845C4.33701 17.4608 3.38368 16.8579 2.56886 16.0756C1.75405 15.3097 1.11849 14.4053 0.662197 13.3623C0.222197 12.3193 0.00219727 11.1786 0.00219727 9.94007C0.00219727 8.63637 0.222197 7.43044 0.662197 6.3223C1.11849 5.19785 1.75405 4.22822 2.56886 3.41341C3.38368 2.5823 4.33701 1.93859 5.42886 1.4823C6.52072 1.026 7.71849 0.797852 9.0222 0.797852C10.1955 0.797852 11.2792 0.985259 12.2733 1.36007C13.2674 1.73489 14.1392 2.26452 14.8889 2.94896C15.6385 3.61711 16.2252 4.40748 16.6489 5.32007C17.0726 6.21637 17.2844 7.19415 17.2844 8.25341C17.2844 9.32896 17.0889 10.2904 16.6978 11.1379C16.3066 11.969 15.7607 12.6208 15.06 13.0934C14.3592 13.566 13.5607 13.8023 12.6644 13.8023C11.4748 13.8023 10.6437 13.4682 10.1711 12.8001C9.79627 13.126 9.38886 13.3786 8.94886 13.5579C8.50886 13.7371 8.06072 13.8267 7.60442 13.8267C6.93627 13.8267 6.33331 13.6556 5.79553 13.3134C5.25775 12.9712 4.83405 12.5149 4.52442 11.9445C4.21479 11.3741 4.05998 10.7386 4.05998 10.0379C4.05998 9.20674 4.24738 8.45711 4.6222 7.78896C5.01331 7.10452 5.53479 6.56674 6.18664 6.17563C6.85479 5.78452 7.58812 5.58896 8.38664 5.58896C9.28294 5.58896 10.0407 5.85785 10.66 6.39563L10.7578 5.90674H12.9578L11.9066 10.869C11.8252 11.309 11.874 11.6512 12.0533 11.8956C12.2489 12.1238 12.5585 12.2379 12.9822 12.2379C13.4874 12.2379 13.9355 12.0749 14.3266 11.749C14.734 11.4067 15.0437 10.9504 15.2555 10.3801C15.4837 9.79341 15.5978 9.12526 15.5978 8.37563C15.5978 7.2023 15.3044 6.15118 14.7178 5.2223C14.1474 4.29341 13.357 3.56007 12.3466 3.0223C11.3526 2.48452 10.22 2.21563 8.94886 2.21563C7.9222 2.21563 6.96072 2.41119 6.06442 2.8023C5.18442 3.17711 4.41035 3.71489 3.7422 4.41563C3.09035 5.10007 2.57701 5.90674 2.2022 6.83563C1.84368 7.74822 1.66442 8.7423 1.66442 9.81785C1.66442 11.2193 1.97405 12.4579 2.59331 13.5334C3.21257 14.609 4.07627 15.4482 5.18442 16.0512C6.30886 16.6704 7.58812 16.9801 9.0222 16.9801C10.5052 16.9801 11.8496 16.6786 13.0555 16.0756L13.6666 17.4445C12.917 17.803 12.1592 18.0719 11.3933 18.2512C10.6274 18.4304 9.83701 18.5201 9.0222 18.5201ZM8.11775 12.0179C8.73701 12.0179 9.28294 11.806 9.75553 11.3823C9.75553 11.2519 9.75553 11.1216 9.75553 10.9912C9.77183 10.8608 9.79627 10.7223 9.82886 10.5756L10.2689 8.3023C10.0733 8.02526 9.82072 7.81341 9.51109 7.66674C9.20146 7.50378 8.84294 7.4223 8.43553 7.4223C8.02812 7.4223 7.64516 7.53637 7.28664 7.76452C6.94442 7.97637 6.66738 8.2697 6.45553 8.64452C6.25997 9.00304 6.1622 9.41044 6.1622 9.86674C6.1622 10.486 6.3496 10.9993 6.72442 11.4067C7.09923 11.8141 7.56368 12.0179 8.11775 12.0179Z" fill="#000000"/>
</svg>
