<svg width="74" height="76" viewBox="0 0 74 76" fill="none" xmlns="http://www.w3.org/2000/svg">
<path d="M53.2497 69.192C53.7693 70.8655 52.8932 72.6482 51.2522 73.2631C45.8453 75.2887 40.7537 76 34.1594 76C16.0336 76 0.0917969 63.0084 0.0917969 41.6031C0.0916435 19.3303 16.2522 0 40.9296 0C60.1486 0 73.9084 13.2132 73.9084 31.5598C73.9084 47.5018 64.9538 57.5448 53.161 57.5448C48.0301 57.5448 44.3135 54.926 43.7713 49.1385H43.5531C40.1645 54.7093 35.2524 57.5448 29.4649 57.5448C22.3645 57.5448 17.2337 52.3042 17.2337 43.3499C17.2337 30.0315 27.0631 17.9072 42.788 17.9072C45.4065 17.9072 48.2229 18.2642 50.6848 18.8372C53.614 19.5188 55.5056 22.3471 55.0242 25.3158L52.5074 40.838C51.4124 47.285 52.1773 50.232 55.2357 50.3387C59.9316 50.4504 65.8256 44.4431 65.8256 31.8851C65.8256 17.6902 56.6543 6.65921 39.7293 6.65921C23.0223 6.65921 8.38785 19.7655 8.38785 40.6211C8.38785 58.8564 20.0755 69.2324 36.3427 69.2324C40.6715 69.2324 45.1961 68.5048 49.0489 67.1061C49.881 66.8042 50.8003 66.8563 51.5933 67.2495C52.3864 67.6429 52.9859 68.3435 53.2484 69.189L53.2497 69.192ZM44.4246 26.9725C43.5526 26.7543 42.4593 26.5359 41.0408 26.5359C33.8301 26.5359 28.1529 33.632 28.1529 42.0425C28.1529 46.1915 30.0112 48.8085 33.6117 48.8085C37.6523 48.8085 41.9126 43.6795 42.8944 37.3439L44.4246 26.9725Z" fill="black"/>
</svg>
