<svg width="70" height="70" viewBox="0 0 70 70" fill="none" xmlns="http://www.w3.org/2000/svg">
<g clip-path="url(#clip0_2970_8370)">
<path d="M10.2944 60.1853C13.4532 63.2307 17.2324 65.7131 21.6321 67.4053C26.0317 69.0975 30.9391 70 36.2412 70C42.1639 70 47.6353 69.0975 52.5426 67.2367C56.9987 65.6009 53.1631 57.3086 49.8915 58.6629C46.2821 60.1859 41.8819 60.9756 36.8611 60.9756C32.9127 60.9756 29.3033 60.3551 26.144 59.1711C22.9852 57.9861 20.2213 56.2939 17.9651 54.0946C15.7088 51.8948 13.9039 49.1873 12.6629 46.0849C11.3656 42.9256 10.7451 39.3162 10.7451 35.3678C10.7451 31.645 11.3656 28.0914 12.6065 24.9326C13.8474 21.7739 15.5396 18.9536 17.7959 16.6973C19.9957 14.3847 22.7032 12.5233 25.8055 11.2259C28.9079 9.9286 32.4051 9.25173 36.2407 9.25173C39.7948 9.25173 43.0658 9.75939 45.9995 10.6619C48.8762 11.5644 51.3581 12.9745 53.4445 14.8359C55.5316 16.6973 57.1673 18.9536 58.3519 21.6611C59.537 24.3686 60.101 27.5273 60.101 31.1373C60.101 33.2243 59.8754 35.1985 59.4236 37.0599C58.9729 38.8085 58.4088 40.3873 57.6192 41.6288C56.8853 42.8139 56.0392 43.7723 55.0245 44.4491C53.8394 45.2388 52.0908 45.6901 50.737 45.2388C49.0449 44.6748 49.3839 42.3057 49.4961 40.8956C49.6659 38.9778 50.173 37.1728 50.5678 35.3114C51.1883 32.2654 51.8652 29.2759 52.4856 26.2864C52.8241 24.6506 53.2184 22.9584 53.5568 21.3226C54.008 19.2356 52.4287 17.205 50.2294 17.205H47.7475C46.2246 17.205 44.8708 18.2203 44.4754 19.6869C44.3068 20.3637 44.137 20.9278 44.137 20.9278C42.8966 17.0922 38.3271 16.0205 34.7171 16.0769C29.979 16.1333 25.6358 18.5587 22.477 21.9995C22.195 22.3379 21.8565 22.6764 21.5745 23.0148C19.9387 24.989 18.6978 27.3017 17.8517 29.7272C16.9492 32.3218 16.498 34.9729 16.498 37.6804C16.498 39.9936 16.8364 42.1929 17.4569 44.1671C18.1337 46.1983 19.0926 47.9463 20.3336 49.4129C21.5745 50.88 23.1539 52.064 25.0153 52.9101C26.8767 53.7562 28.9637 54.2074 31.22 54.2074C32.9122 54.2074 34.4915 53.9254 35.9017 53.4183C37.2554 52.9106 38.4964 52.2902 39.5681 51.5569C40.4142 50.9928 41.2039 50.3159 41.8243 49.6949C42.2186 50.4288 42.6704 51.0487 43.2909 51.6691C44.8708 53.3613 47.2957 54.2074 50.5114 54.2074C53.0497 54.2074 55.531 53.7003 57.8442 52.685C60.1569 51.6691 62.2433 50.0898 63.9919 48.0597C65.6841 46.0285 67.0943 43.5472 68.1096 40.6141C69.1254 37.681 69.6325 34.2966 69.6325 30.5738C69.6325 25.4973 68.6736 20.9848 66.8122 17.2056C64.9508 13.4263 62.4126 10.2112 59.2544 7.67292C56.152 5.13465 52.542 3.27325 48.5372 1.97591C44.5893 0.620467 40.4717 0 36.2412 0C31.3339 0 26.6522 0.902498 22.3089 2.65109C17.9657 4.45608 14.13 6.93795 10.9149 10.0403C7.64333 13.1426 5.04865 16.9218 3.18725 21.1523C1.32585 25.3828 0.366943 30.1209 0.366943 35.0846C0.366943 40.1042 1.21304 44.8429 2.96163 49.0733C4.65381 53.3602 7.13568 57.083 10.2944 60.1853ZM40.8096 36.4948C40.4153 38.0177 39.8512 39.4843 39.061 40.838C38.2713 42.1354 37.3124 43.2065 36.0715 44.0526C34.9433 44.8423 33.5896 45.2377 31.8974 45.2377C30.8257 45.2377 29.9796 45.0121 29.3591 44.6167C28.6823 44.1654 28.1182 43.6014 27.7233 42.8681C27.2721 42.0784 26.9901 41.2323 26.8209 40.3862C26.6516 39.4837 26.5388 38.6376 26.5388 37.9049C26.5388 36.3255 26.7644 34.7462 27.2157 33.1104C27.6669 31.531 28.2874 30.0645 29.1335 28.8235C29.9796 27.5826 30.9385 26.5673 32.123 25.7776C33.1947 25.0443 34.3793 24.7059 35.7894 24.7059C36.9176 24.7059 37.8206 24.8751 38.4969 25.2699C39.1738 25.6648 39.7379 26.1724 40.1327 26.7929C40.5839 27.4698 40.866 28.2595 41.091 29.1056C41.3167 30.0645 41.43 31.0798 41.43 32.0387C41.3736 33.4488 41.205 34.9154 40.8096 36.4948Z" fill="black"/>
</g>
<defs>
<clipPath id="clip0_2970_8370">
<rect width="70" height="70" fill="white"/>
</clipPath>
</defs>
</svg>
