<svg width="20" height="19" viewBox="0 0 20 19" fill="none" xmlns="http://www.w3.org/2000/svg">
<path d="M10 18.7422C14.9658 18.7422 19.0791 14.6377 19.0791 9.66309C19.0791 4.69727 14.9658 0.583984 9.99121 0.583984C5.02539 0.583984 0.920898 4.69727 0.920898 9.66309C0.920898 14.6377 5.03418 18.7422 10 18.7422ZM4.33105 9.38184C4.33105 8.02832 4.82324 6.74512 5.69336 5.80469C5.94824 5.51465 6.33496 5.50586 6.56348 5.77832C6.76562 5.99805 6.73926 6.32324 6.49316 6.60449C5.8252 7.33398 5.45605 8.31836 5.45605 9.38184C5.45605 10.4629 5.8252 11.4385 6.49316 12.168C6.73926 12.458 6.76562 12.7656 6.55469 12.9941C6.32617 13.2666 5.94824 13.249 5.69336 12.9766C4.80566 12.0186 4.33105 10.7617 4.33105 9.38184ZM14.5439 9.38184C14.5439 8.31836 14.1748 7.33398 13.5068 6.60449C13.2695 6.32324 13.2344 5.99805 13.4365 5.77832C13.6738 5.50586 14.0518 5.51465 14.3066 5.80469C15.1855 6.74512 15.6777 8.02832 15.6777 9.38184C15.6777 10.7617 15.1943 12.0186 14.3066 12.9766C14.0518 13.249 13.6738 13.2666 13.4453 12.9941C13.2344 12.7656 13.2607 12.458 13.5068 12.168C14.1748 11.4385 14.5439 10.4629 14.5439 9.38184ZM6.51953 9.38184C6.51953 8.6084 6.77441 7.86133 7.24023 7.29883C7.47754 7 7.89062 6.98242 8.12793 7.26367C8.30371 7.4834 8.28613 7.76465 8.06641 8.07227C7.80273 8.43262 7.64453 8.90723 7.64453 9.38184C7.64453 9.88281 7.79395 10.3311 8.05762 10.6826C8.27734 11.0078 8.3125 11.2891 8.12793 11.5176C7.89941 11.7812 7.47754 11.7725 7.24023 11.4736C6.77441 10.9199 6.51953 10.1641 6.51953 9.38184ZM12.3555 9.38184C12.3555 8.90723 12.1973 8.43262 11.9336 8.07227C11.7139 7.76465 11.6963 7.4834 11.8721 7.26367C12.1094 6.98242 12.5225 7 12.7686 7.29883C13.2256 7.86133 13.4893 8.6084 13.4893 9.38184C13.4893 10.1641 13.2256 10.9199 12.7686 11.4736C12.5225 11.7725 12.1006 11.7812 11.8721 11.5176C11.6963 11.2891 11.7139 11.0078 11.9424 10.7002C12.1973 10.3486 12.3555 9.88281 12.3555 9.38184ZM8.91895 9.38184C8.91895 8.77539 9.39355 8.29199 10 8.29199C10.6064 8.29199 11.0811 8.77539 11.0811 9.38184C11.0811 9.77734 10.8613 10.1289 10.5449 10.3135V14.8223C10.5449 15.1738 10.3252 15.4111 10 15.4111C9.68359 15.4111 9.46387 15.165 9.46387 14.8223V10.3223C9.13867 10.1289 8.91895 9.78613 8.91895 9.38184Z" fill="black"/>
</svg>
