<svg width="20" height="17" viewBox="0 0 20 17" xmlns="http://www.w3.org/2000/svg">
<path d="M8.83105 16.8369C9.50781 16.8369 10.0176 16.3359 10.0176 15.6504V12.5039H10.2373C13.4453 12.5039 15.4053 13.4443 16.7852 16.0107C17.1367 16.6523 17.5586 16.8018 18.0244 16.8018C18.6396 16.8018 19.1143 16.2217 19.1143 15.1055C19.1143 8.72461 16.293 4.83105 10.2373 4.83105H10.0176V1.70215C10.0176 1.0166 9.50781 0.47168 8.81348 0.47168C8.34766 0.47168 8.01367 0.665039 7.50391 1.13965L0.542969 7.62598C0.200195 7.95117 0.0683594 8.32031 0.0683594 8.6543C0.0683594 8.97949 0.200195 9.35742 0.542969 9.68262L7.50391 16.2129C7.96973 16.6523 8.34766 16.8369 8.83105 16.8369Z" fill="#000000"/>
</svg>
