<svg width="24" height="20" viewBox="0 0 24 20" fill="none" xmlns="http://www.w3.org/2000/svg">
<path d="M22.777 8.61997H21.4566C20.9002 3.83843 16.7505 0 11.7521 0C8.9888 0 6.48014 1.20717 4.74483 3.09338C4.28271 3.54607 4.30157 4.14966 4.67881 4.49861C5.06548 4.85699 5.62191 4.85699 6.09347 4.42316C7.49869 2.90476 9.51693 1.95223 11.7521 1.95223C15.732 1.95223 18.948 4.86642 19.4855 8.61997H18.0426C17.3164 8.61997 17.1184 9.15754 17.5427 9.74226L19.7968 12.93C20.1457 13.4015 20.6739 13.4109 21.0134 12.93L23.2768 9.7517C23.7012 9.15754 23.5126 8.61997 22.777 8.61997ZM0.727204 10.8929H2.05698C2.61341 15.6744 6.76307 19.5128 11.7521 19.5128C14.5342 19.5128 17.0429 18.2962 18.7782 16.41C19.2309 15.9573 19.212 15.3537 18.8348 15.0048C18.4481 14.6464 17.9011 14.6464 17.4201 15.0897C16.0338 16.6081 14.0155 17.5606 11.7521 17.5606C7.78162 17.5606 4.56564 14.6464 4.02807 10.8929H5.46159C6.17835 10.8929 6.38583 10.3553 5.96143 9.77056L3.69798 6.58287C3.35846 6.11131 2.83033 6.10188 2.49081 6.58287L0.227359 9.76113C-0.206469 10.3553 -0.00841724 10.8929 0.727204 10.8929Z" fill="white"/>
</svg>
