<svg width="20" height="17" viewBox="0 0 20 17" xmlns="http://www.w3.org/2000/svg">
<path d="M11.1689 16.8369C11.6523 16.8369 12.0303 16.6523 12.4961 16.2129L19.457 9.68262C19.7998 9.35742 19.9316 8.97949 19.9316 8.6543C19.9316 8.32031 19.7998 7.95117 19.457 7.62598L12.4961 1.13965C11.9863 0.665039 11.6523 0.47168 11.1865 0.47168C10.4834 0.47168 9.98242 1.0166 9.98242 1.70215V4.83105H9.7627C3.69824 4.83105 0.885742 8.72461 0.885742 15.1055C0.885742 16.2217 1.36035 16.8018 1.97559 16.8018C2.44141 16.8018 2.87207 16.6523 3.21484 16.0107C4.59473 13.4443 6.55469 12.5039 9.7627 12.5039H9.98242V15.6504C9.98242 16.3359 10.4834 16.8369 11.1689 16.8369Z" fill="#000000"/>
</svg>
