<svg width="14" height="16" viewBox="0 0 14 16" fill="none" xmlns="http://www.w3.org/2000/svg">
<path d="M0.922852 13.8604C0.386719 13.8604 0 14.2646 0 14.8096C0 15.3545 0.386719 15.7588 0.922852 15.7588H12.5332C13.0781 15.7588 13.4736 15.3545 13.4736 14.8096C13.4736 14.2646 13.0781 13.8604 12.5332 13.8604H6.94336C7.13672 13.8252 7.3125 13.7197 7.45312 13.5703L13.0693 8.00684C13.2803 7.7959 13.3857 7.55859 13.3857 7.30371C13.3857 6.75879 12.9902 6.36328 12.4629 6.36328C12.1904 6.36328 11.9443 6.47754 11.7686 6.65332L9.95801 8.42871L7.61133 11.0039L7.69922 9.1582V0.975586C7.69922 0.395508 7.30371 0 6.74121 0C6.16992 0 5.77441 0.395508 5.77441 0.975586V9.1582L5.8623 11.0127L3.51562 8.42871L1.71387 6.65332C1.5293 6.46875 1.29199 6.36328 1.01953 6.36328C0.483398 6.36328 0.0966797 6.75879 0.0966797 7.30371C0.0966797 7.55859 0.193359 7.7959 0.404297 8.00684L6.02051 13.5703C6.16113 13.7197 6.33691 13.8252 6.53027 13.8604H0.922852Z" fill="black"/>
</svg>
