<svg width="25" height="20" viewBox="0 0 25 20" fill="none" xmlns="http://www.w3.org/2000/svg">
<path d="M23.527 9.04838H22.2066C21.6502 4.26684 17.5005 0.428406 12.5021 0.428406C9.7388 0.428406 7.23014 1.63558 5.49483 3.52179C5.03271 3.97448 5.05157 4.57806 5.42881 4.92701C5.81548 5.28539 6.37191 5.28539 6.84347 4.85156C8.24869 3.33317 10.2669 2.38063 12.5021 2.38063C16.482 2.38063 19.698 5.29482 20.2355 9.04838H18.7926C18.0664 9.04838 17.8684 9.58595 18.2927 10.1707L20.5468 13.3584C20.8957 13.8299 21.4239 13.8393 21.7634 13.3584L24.0268 10.1801C24.4512 9.58595 24.2626 9.04838 23.527 9.04838ZM1.4772 11.3213H2.80698C3.36341 16.1028 7.51307 19.9412 12.5021 19.9412C15.2842 19.9412 17.7929 18.7246 19.5282 16.8384C19.9809 16.3857 19.962 15.7821 19.5848 15.4332C19.1981 15.0748 18.6511 15.0748 18.1701 15.5181C16.7838 17.0365 14.7655 17.989 12.5021 17.989C8.53162 17.989 5.31564 15.0748 4.77807 11.3213H6.21159C6.92835 11.3213 7.13583 10.7837 6.71143 10.199L4.44798 7.01127C4.10846 6.53972 3.58033 6.53029 3.24081 7.01127L0.977359 10.1895C0.543531 10.7837 0.741583 11.3213 1.4772 11.3213Z" fill="white"/>
</svg>
