<svg width="20" height="19" viewBox="0 0 20 19" xmlns="http://www.w3.org/2000/svg">
<path d="M9.99121 18.7422C14.9746 18.7422 19.0879 14.6289 19.0879 9.6543C19.0879 4.67969 14.9658 0.566406 9.98242 0.566406C5.00781 0.566406 0.90332 4.67969 0.90332 9.6543C0.90332 14.6289 5.0166 18.7422 9.99121 18.7422ZM5.27148 9.64551C5.27148 9.39941 5.35938 9.19727 5.5791 8.99512L8.68164 5.93652C8.83984 5.77832 9.01562 5.7168 9.23535 5.7168C9.6748 5.7168 9.98242 6.0332 9.98242 6.47266C9.98242 6.69238 9.88574 6.89453 9.74512 7.03516L8.64648 8.08984L7.61816 8.90723L9.49023 8.81934H13.9287C14.3945 8.81934 14.7285 9.1709 14.7285 9.6543C14.7285 10.1289 14.3945 10.4805 13.9287 10.4805H9.49023L7.61816 10.3926L8.6377 11.21L9.74512 12.2646C9.89453 12.4053 9.98242 12.6074 9.98242 12.8271C9.98242 13.2666 9.6748 13.5918 9.23535 13.5918C9.01562 13.5918 8.83984 13.5127 8.68164 13.3633L5.5791 10.3135C5.36816 10.1113 5.27148 9.90918 5.27148 9.64551Z" fill="#000000"/>
</svg>
