<svg width="20" height="19" viewBox="0 0 20 19" xmlns="http://www.w3.org/2000/svg">
<path d="M9.99121 18.7422C14.9746 18.7422 19.0879 14.6289 19.0879 9.6543C19.0879 4.67969 14.9658 0.566406 9.98242 0.566406C5.00781 0.566406 0.90332 4.67969 0.90332 9.6543C0.90332 14.6289 5.0166 18.7422 9.99121 18.7422ZM14.7109 9.64551C14.7109 9.90918 14.6143 10.1113 14.4033 10.3135L11.3008 13.3633C11.1426 13.5127 10.9668 13.5918 10.7383 13.5918C10.3076 13.5918 10 13.2666 10 12.8271C10 12.6074 10.0879 12.4053 10.2373 12.2646L11.3447 11.21L12.3643 10.3926L10.4922 10.4805H6.05371C5.5791 10.4805 5.24512 10.1289 5.24512 9.6543C5.24512 9.1709 5.58789 8.81934 6.05371 8.81934H10.4922L12.3643 8.90723L11.3359 8.08984L10.2373 7.03516C10.0967 6.89453 10 6.69238 10 6.47266C10 6.0332 10.3076 5.7168 10.7383 5.7168C10.9668 5.7168 11.1426 5.77832 11.3008 5.93652L14.4033 8.99512C14.623 9.19727 14.7109 9.39941 14.7109 9.64551Z" fill="#000000"/>
</svg>
