<svg width="18" height="19" viewBox="0 0 18 19" fill="none" xmlns="http://www.w3.org/2000/svg">
<path d="M1.9248 15.5781H5.5459C5.60742 17.248 6.97852 18.7949 9 18.7949C11.0127 18.7949 12.3926 17.2656 12.4629 15.5781H16.0752C16.9893 15.5781 17.5518 15.0771 17.5518 14.3213C17.5518 13.3809 16.6992 12.5811 15.8994 11.8164C15.2754 11.21 15.126 9.99707 15.0117 8.75781C14.8887 5.44434 13.9131 3.22949 11.6279 2.40332C11.2852 1.23438 10.3096 0.34668 9 0.34668C7.69043 0.34668 6.71484 1.23438 6.38086 2.40332C4.08691 3.22949 3.12012 5.44434 2.98828 8.75781C2.87402 9.99707 2.72461 11.21 2.10059 11.8164C1.30078 12.5811 0.448242 13.3809 0.448242 14.3213C0.448242 15.0771 1.01074 15.5781 1.9248 15.5781ZM2.59277 13.9434V13.8379C2.82129 13.583 3.33105 13.1172 3.76172 12.625C4.36816 11.9307 4.64941 10.6475 4.7373 8.97754C4.84277 5.45312 5.93262 4.2666 7.33887 3.88867C7.55859 3.82715 7.67285 3.72168 7.69043 3.48438C7.73438 2.59668 8.23535 1.99902 9 1.99902C9.77344 1.99902 10.2656 2.59668 10.3096 3.48438C10.3271 3.72168 10.4502 3.82715 10.6611 3.88867C12.0762 4.2666 13.1572 5.45312 13.2627 8.97754C13.3594 10.6475 13.6406 11.9307 14.2383 12.625C14.6689 13.1172 15.1611 13.583 15.3896 13.8379V13.9434H2.59277ZM9 17.3799C8.00684 17.3799 7.29492 16.668 7.2334 15.5781H10.7754C10.7227 16.6592 10.002 17.3799 9 17.3799Z" fill="black"/>
</svg>
