<svg width="50" height="50" viewBox="0 0 50 50" xmlns="http://www.w3.org/2000/svg">
<path d="M17.5049 37.5H9.0159C5.86982 37.5 4.2968 37.5 3.96582 37.2557C3.594 36.9812 3.50315 36.8193 3.46288 36.359C3.42705 35.9493 4.39115 34.3715 6.3194 31.2165C8.31028 27.9587 10.0008 23.2155 10.0008 16.5C10.0008 12.787 11.5811 9.22603 14.3942 6.6005C17.2072 3.975 21.0225 2.5 25.0008 2.5C28.979 2.5 32.7943 3.975 35.6073 6.6005C38.4205 9.22603 40.0007 12.787 40.0007 16.5C40.0007 23.2155 41.6912 27.9587 43.6822 31.2165C45.6102 34.3715 46.5745 35.9493 46.5387 36.359C46.4985 36.8193 46.4075 36.9812 46.0358 37.2557C45.7048 37.5 44.1318 37.5 40.9858 37.5H32.5008M17.5049 37.5L17.5008 40C17.5008 44.1423 20.8588 47.5 25.0008 47.5C29.143 47.5 32.5008 44.1423 32.5008 40V37.5M17.5049 37.5H32.5008" stroke="black" stroke-width="5" stroke-linecap="round" stroke-linejoin="round"  fill="#000000"/>
</svg>
