<svg width="24" height="18" viewBox="0 0 24 18" xmlns="http://www.w3.org/2000/svg">
<path d="M0.591797 13.0049C0.591797 15.5098 2.82422 17.3906 5.5752 17.3906C8.32617 17.3906 10.5498 15.5098 10.5498 13.0049V10.9131C10.9717 10.7549 11.4814 10.667 12 10.667C12.5889 10.667 13.0547 10.7285 13.4414 10.8604V13.0049C13.4414 15.5098 15.665 17.3906 18.416 17.3906C21.167 17.3906 23.3994 15.5098 23.3994 13.0049C23.3994 12.3721 23.2939 11.7393 22.96 10.9482L19.3652 2.49316C18.8379 1.23633 17.7393 0.515625 16.3506 0.515625C14.5928 0.515625 13.4414 1.6582 13.4414 3.36328V4.08398C13.0107 3.97852 12.5361 3.93457 12 3.93457C11.499 3.93457 11.0068 4.00488 10.5498 4.12793V3.36328C10.5498 1.64941 9.39844 0.515625 7.64062 0.515625C6.24316 0.515625 5.15332 1.22754 4.62598 2.48438L1.03125 10.9482C0.697266 11.7393 0.591797 12.3721 0.591797 13.0049ZM3.61523 9.05859L6.15527 3.09082C6.41895 2.4668 6.94629 2.09766 7.57031 2.09766C8.3877 2.09766 8.91504 2.64258 8.91504 3.45117V9.84961C8.07129 9.08496 6.8584 8.61914 5.5752 8.61914C4.89844 8.61914 4.21289 8.77734 3.61523 9.05859ZM20.376 9.05859C19.7783 8.78613 19.0928 8.62793 18.416 8.62793C17.1328 8.62793 15.9199 9.08496 15.0762 9.84961V3.45117C15.0762 2.64258 15.6035 2.10645 16.4121 2.10645C17.0449 2.10645 17.5723 2.4668 17.8359 3.09082L20.376 9.05859ZM12 5.2793C12.5889 5.2793 13.0547 5.33203 13.4414 5.46387V6.78223C13.0107 6.67676 12.5361 6.63281 12 6.63281C11.499 6.63281 11.0068 6.70312 10.5498 6.82617V5.5166C10.9717 5.36719 11.4814 5.2793 12 5.2793ZM12 7.97754C12.5889 7.97754 13.0547 8.03027 13.4414 8.16211V9.47168C13.0107 9.375 12.5361 9.32227 12 9.32227C11.499 9.32227 11.0068 9.39258 10.5498 9.51562V8.21484C10.9717 8.06543 11.4814 7.97754 12 7.97754ZM2.2793 13.0049C2.2793 11.3613 3.69434 10.2539 5.5752 10.2539C7.45605 10.2539 8.90625 11.3613 8.90625 13.0049C8.90625 14.6484 7.45605 15.7559 5.5752 15.7559C3.69434 15.7559 2.2793 14.6484 2.2793 13.0049ZM21.7031 13.0049C21.7031 14.6484 20.2969 15.7646 18.416 15.7646C16.5352 15.7646 15.085 14.6484 15.085 13.0049C15.085 11.3613 16.5352 10.2539 18.416 10.2539C20.2969 10.2539 21.7031 11.3613 21.7031 13.0049Z" fill="#000000"/>
</svg>
