<svg width="24" height="18" viewBox="0 0 24 18" fill="none" xmlns="http://www.w3.org/2000/svg">
<path d="M0.591797 13.0049C0.591797 15.5098 2.82422 17.3906 5.5752 17.3906C8.32617 17.3906 10.5498 15.5098 10.5498 13.0049V10.9131C10.9805 10.7637 11.4814 10.667 12 10.667C12.5625 10.667 13.0459 10.7285 13.4414 10.8604V13.0049C13.4414 15.5098 15.665 17.3906 18.416 17.3906C21.167 17.3906 23.3994 15.5098 23.3994 13.0049C23.3994 12.3721 23.2939 11.7393 22.96 10.9482L19.3652 2.49316C18.8379 1.23633 17.7393 0.515625 16.3506 0.515625C14.5928 0.515625 13.4414 1.6582 13.4414 3.36328V4.10156C13.0107 3.9873 12.5186 3.93457 12 3.93457C11.499 3.93457 11.0068 4.00488 10.5498 4.13672V3.36328C10.5498 1.64941 9.39844 0.515625 7.64062 0.515625C6.24316 0.515625 5.15332 1.22754 4.62598 2.48438L1.03125 10.9482C0.697266 11.7393 0.591797 12.3721 0.591797 13.0049ZM10.541 8.21484V6.84375C11.0068 6.70312 11.499 6.63281 12 6.63281C12.5186 6.63281 13.0107 6.68555 13.4414 6.7998V8.1709C13.0459 8.03906 12.5713 7.97754 12 7.97754C11.4814 7.97754 10.9717 8.06543 10.541 8.21484ZM2.2793 13.0049C2.2793 11.3613 3.69434 10.2539 5.5752 10.2539C7.45605 10.2539 8.90625 11.3613 8.90625 13.0049C8.90625 14.6484 7.45605 15.7559 5.5752 15.7559C3.69434 15.7559 2.2793 14.6484 2.2793 13.0049ZM15.085 13.0049C15.085 11.3613 16.5352 10.2539 18.416 10.2539C20.2969 10.2539 21.7031 11.3613 21.7031 13.0049C21.7031 14.6484 20.2969 15.7646 18.416 15.7646C16.5352 15.7646 15.085 14.6484 15.085 13.0049Z" fill="black"/>
</svg>
