<svg width="24" height="32" viewBox="0 0 24 32" xmlns="http://www.w3.org/2000/svg">
<path d="M19.8375 2.78758C20.2062 1.93133 19.9312 0.931327 19.175 0.381327C18.4187 -0.168673 17.3875 -0.118673 16.6812 0.493827L0.681247 14.4938C0.0562468 15.0438 -0.168753 15.9251 0.124997 16.7001C0.418747 17.4751 1.16875 18.0001 2 18.0001H8.96875L4.1625 29.2126C3.79375 30.0688 4.06875 31.0688 4.825 31.6188C5.58125 32.1688 6.6125 32.1188 7.31875 31.5063L23.3187 17.5063C23.9437 16.9563 24.1687 16.0751 23.875 15.3001C23.5812 14.5251 22.8375 14.0063 22 14.0063H15.0312L19.8375 2.78758Z" fill="#000000"/>
</svg>
