<svg width="32" height="28" viewBox="0 0 32 28" xmlns="http://www.w3.org/2000/svg">
<path d="M9.31875 2.05L8.66875 4H4C1.79375 4 0 5.79375 0 8V24C0 26.2062 1.79375 28 4 28H28C30.2062 28 32 26.2062 32 24V8C32 5.79375 30.2062 4 28 4H23.3312L22.6812 2.05C22.275 0.825 21.1312 0 19.8375 0H12.1625C10.8688 0 9.725 0.825 9.31875 2.05ZM16 10C17.5913 10 19.1174 10.6321 20.2426 11.7574C21.3679 12.8826 22 14.4087 22 16C22 17.5913 21.3679 19.1174 20.2426 20.2426C19.1174 21.3679 17.5913 22 16 22C14.4087 22 12.8826 21.3679 11.7574 20.2426C10.6321 19.1174 10 17.5913 10 16C10 14.4087 10.6321 12.8826 11.7574 11.7574C12.8826 10.6321 14.4087 10 16 10Z" fill="#000000"/>
</svg>
