<svg width="33" height="33" viewBox="0 0 33 33" xmlns="http://www.w3.org/2000/svg">
<path d="M16.5 33C20.8761 33 25.0729 31.2616 28.1673 28.1673C31.2616 25.0729 33 20.8761 33 16.5C33 12.1239 31.2616 7.92709 28.1673 4.83274C25.0729 1.73839 20.8761 0 16.5 0C12.1239 0 7.92709 1.73839 4.83274 4.83274C1.73839 7.92709 0 12.1239 0 16.5C0 20.8761 1.73839 25.0729 4.83274 28.1673C7.92709 31.2616 12.1239 33 16.5 33ZM23.7832 13.4707L15.5332 21.7207C14.9273 22.3266 13.9477 22.3266 13.3482 21.7207L9.22324 17.5957C8.61738 16.9898 8.61738 16.0102 9.22324 15.4107C9.8291 14.8113 10.8088 14.8049 11.4082 15.4107L14.4375 18.44L21.5918 11.2793C22.1977 10.6734 23.1773 10.6734 23.7768 11.2793C24.3762 11.8852 24.3826 12.8648 23.7768 13.4643L23.7832 13.4707Z" fill="#000000"/>
</svg>
