<svg width="16" height="16" viewBox="0 0 16 16" fill="none" xmlns="http://www.w3.org/2000/svg">
<path d="M6.10742 15.8193C6.65527 15.8193 7.12012 15.5537 7.45215 15.0391L15.0391 3.10254C15.2217 2.77051 15.4375 2.40527 15.4375 2.04004C15.4375 1.29297 14.7734 0.811523 14.0762 0.811523C13.6611 0.811523 13.2461 1.07715 12.9307 1.55859L6.04102 12.6152L2.77051 8.38184C2.37207 7.85059 2.00684 7.71777 1.54199 7.71777C0.828125 7.71777 0.263672 8.29883 0.263672 9.0293C0.263672 9.39453 0.413086 9.74316 0.645508 10.0586L4.69629 15.0391C5.11133 15.5869 5.55957 15.8193 6.10742 15.8193Z" fill="black"/>
</svg>
