<svg width="122" height="36" viewBox="0 0 122 36" fill="none" xmlns="http://www.w3.org/2000/svg">
<path d="M16.2658 35.5587C14.0292 35.5587 11.9634 35.1704 10.0685 34.3938C8.17353 33.5861 6.49604 32.4833 5.03601 31.0854C3.60704 29.6875 2.48871 28.0566 1.68103 26.1927C0.90442 24.2978 0.516113 22.2631 0.516113 20.0885C0.516113 17.6034 0.982082 15.2735 1.91402 13.099C2.87702 10.8934 4.18173 8.96742 5.82815 7.32099C7.47458 5.67457 9.38505 4.38539 11.5596 3.45346C13.7651 2.49046 16.1105 2.00896 18.5957 2.00896C21.5468 2.00896 24.1562 2.58365 26.424 3.73304C28.7227 4.85136 30.5711 6.46672 31.969 8.57911L26.8433 12.9592C25.9114 11.406 24.6999 10.2255 23.2088 9.41785C21.7487 8.61017 20.0868 8.20633 18.2229 8.20633C16.7008 8.20633 15.2718 8.50145 13.936 9.09167C12.6313 9.6819 11.4819 10.5051 10.4878 11.5613C9.49377 12.6175 8.71716 13.8446 8.158 15.2425C7.59883 16.6404 7.31925 18.1315 7.31925 19.7158C7.31925 21.5486 7.73862 23.195 8.57737 24.655C9.41611 26.1151 10.5655 27.2644 12.0255 28.1032C13.4856 28.9419 15.1475 29.3613 17.0114 29.3613C18.6268 29.3613 20.1955 29.0351 21.7177 28.3828C23.2398 27.6994 24.6222 26.7208 25.8648 25.4472L29.4994 30.0137C27.7908 31.7222 25.7405 33.0735 23.3486 34.0676C20.9877 35.0617 18.6268 35.5587 16.2658 35.5587Z" fill="black"/>
<path d="M30.8976 34.9995L36.0233 10.7226H42.2673L37.1416 34.9995H30.8976ZM40.1238 7.83356C39.2229 7.83356 38.4618 7.52292 37.8405 6.90162C37.2503 6.28033 36.9552 5.51925 36.9552 4.61838C36.9552 3.87283 37.1416 3.18941 37.5144 2.56812C37.8871 1.94683 38.3686 1.46532 38.9589 1.12361C39.5802 0.75084 40.2481 0.564453 40.9625 0.564453C41.8634 0.564453 42.609 0.875098 43.1992 1.49639C43.8205 2.08662 44.1311 2.83217 44.1311 3.73304C44.1311 4.47859 43.9447 5.16201 43.572 5.7833C43.1992 6.37353 42.7022 6.87056 42.0809 7.2744C41.4906 7.64717 40.8383 7.83356 40.1238 7.83356Z" fill="black"/>
<path d="M42.0452 34.9995L47.2174 10.7226H53.4614L52.9488 13.1456C53.8497 12.2137 54.8438 11.4992 55.931 11.0021C57.0183 10.5051 58.1677 10.2566 59.3792 10.2566C60.715 10.2566 61.7246 10.474 62.408 10.909L61.2431 16.5006C60.9324 16.2831 60.4354 16.0967 59.752 15.9414C59.0686 15.755 58.4162 15.6618 57.7949 15.6618C55.3719 15.6618 53.3372 16.7646 51.6907 18.9702L48.3358 34.9995H42.0452Z" fill="black"/>
<path d="M73.4729 35.4655C71.2984 35.4655 69.3413 34.984 67.6017 34.021C65.8621 33.0269 64.4797 31.6756 63.4546 29.9671C62.4605 28.2274 61.9635 26.2704 61.9635 24.0959C61.9635 22.2009 62.3052 20.4147 62.9886 18.7372C63.7031 17.0597 64.6661 15.5997 65.8776 14.3571C67.1202 13.0835 68.5492 12.0894 70.1646 11.3749C71.811 10.6604 73.5506 10.3032 75.3834 10.3032C77.4337 10.3032 79.3286 10.7381 81.0682 11.6079C82.8389 12.4777 84.2679 13.6737 85.3551 15.1959L81.0216 19.11C80.3071 17.9917 79.4684 17.1685 78.5054 16.6404C77.5424 16.1123 76.4707 15.8482 75.2902 15.8482C74.3272 15.8482 73.4108 16.0657 72.541 16.5006C71.7023 16.9044 70.9412 17.4791 70.2578 18.2247C69.6054 18.9391 69.0928 19.7779 68.7201 20.7409C68.3783 21.6728 68.2075 22.6824 68.2075 23.7697C68.2075 24.9812 68.456 26.0529 68.953 26.9849C69.4811 27.9168 70.1956 28.6468 71.0965 29.1749C71.9974 29.703 73.0225 29.9671 74.1719 29.9671C75.166 29.9671 76.1134 29.7651 77.0143 29.3613C77.9462 28.9575 78.8626 28.3517 79.7635 27.544L82.9321 31.7377C80.1674 34.2229 77.0143 35.4655 73.4729 35.4655Z" fill="black"/>
<path d="M84.8207 34.9995L91.7636 2.38173L98.2872 0.983825L91.0647 34.9995H84.8207Z" fill="black"/>
<path d="M109.668 35.4655C107.307 35.4655 105.194 34.984 103.331 34.021C101.498 33.0269 100.053 31.6601 98.9971 29.9205C97.9409 28.1498 97.4128 26.1617 97.4128 23.9561C97.4128 22.0922 97.7545 20.337 98.4379 18.6906C99.1213 17.0442 100.069 15.5997 101.28 14.3571C102.492 13.0835 103.89 12.1049 105.474 11.4215C107.058 10.707 108.751 10.3498 110.553 10.3498C112.697 10.3498 114.592 10.8624 116.238 11.8875C117.884 12.8816 119.174 14.2484 120.105 15.988C121.037 17.7276 121.503 19.7468 121.503 22.0456C121.503 22.3873 121.488 22.7601 121.457 23.1639C121.457 23.5678 121.395 24.1735 121.27 24.9812H103.657C103.843 26.0063 104.231 26.9227 104.822 27.7304C105.412 28.507 106.157 29.1128 107.058 29.5477C107.99 29.9826 109.031 30.2 110.18 30.2C111.205 30.2 112.168 30.0447 113.069 29.7341C113.97 29.4234 114.762 28.9885 115.446 28.4294L118.941 32.4833C117.449 33.5395 115.974 34.3006 114.514 34.7665C113.054 35.2325 111.438 35.4655 109.668 35.4655ZM104.03 20.4613H115.632C115.446 19.4983 115.104 18.6596 114.607 17.9451C114.11 17.2306 113.489 16.6714 112.743 16.2676C111.998 15.8637 111.159 15.6618 110.227 15.6618C109.295 15.6618 108.41 15.8637 107.571 16.2676C106.763 16.6714 106.049 17.2306 105.427 17.9451C104.837 18.6596 104.371 19.4983 104.03 20.4613Z" fill="black"/>
</svg>
