<svg width="59" height="61" viewBox="0 0 59 61" fill="none" xmlns="http://www.w3.org/2000/svg">
<path d="M58.3477 23.4007H42.4499C42.5643 22.0473 42.488 20.8273 42.2212 19.7408C41.9543 18.6542 41.4968 17.7202 40.8487 16.9386C40.2006 16.138 39.3523 15.528 38.3039 15.1087C37.2555 14.6893 36.0069 14.4796 34.5582 14.4796C31.7751 14.4796 29.2875 15.1754 27.0954 16.5669C24.9032 17.9394 23.0828 19.9123 21.6341 22.4857C20.1853 25.04 19.156 28.09 18.546 31.6355C18.0122 35.0667 17.9932 37.9165 18.4888 40.1849C19.0035 42.4533 20.0042 44.1498 21.4911 45.2745C22.997 46.3992 24.9509 46.9615 27.3527 46.9615C28.9539 46.9615 30.4217 46.7709 31.7561 46.3896C33.1095 46.0084 34.3104 45.4651 35.3588 44.7598C36.4263 44.0355 37.3317 43.1777 38.0752 42.1864C38.8376 41.1761 39.419 40.061 39.8193 38.841H55.8315C55.2215 41.3191 54.135 43.8544 52.5719 46.4468C51.0088 49.0202 48.9882 51.3934 46.5101 53.5665C44.0321 55.7205 41.1156 57.4647 37.7606 58.7991C34.4057 60.1334 30.6314 60.8006 26.4377 60.8006C20.9478 60.8006 16.2109 59.5997 12.2269 57.1979C8.26196 54.796 5.38358 51.2886 3.59174 46.6756C1.81896 42.0625 1.46631 36.4392 2.53379 29.8056C3.60127 23.4007 5.70764 18.0347 8.85289 13.7076C11.9981 9.38049 15.8201 6.12086 20.3188 3.92871C24.8174 1.73657 29.602 0.640495 34.6726 0.640495C38.5041 0.640495 41.9352 1.14564 44.9661 2.15593C48.0161 3.16623 50.5799 4.64354 52.6577 6.58788C54.7545 8.51316 56.2986 10.8864 57.2898 13.7076C58.281 16.5288 58.6337 19.7598 58.3477 23.4007Z" fill="white"/>
</svg>
