<svg width="275" height="275" viewBox="0 0 275 275" fill="none" xmlns="http://www.w3.org/2000/svg">
<path fill-rule="evenodd" clip-rule="evenodd" d="M239.129 228.797C201.621 270.454 144.334 283.709 94.3257 267.145C80.1351 262.445 77.3879 244.817 87.3906 233.708V233.708C92.6218 227.898 100.998 226.366 108.463 228.687C117.478 231.49 127.063 233 137 233C190.019 233 233 190.019 233 137C233 123.545 230.232 110.736 225.234 99.1118C222.127 91.8868 222.778 83.3456 228.04 77.5012V77.5012C238.1 66.3281 256.022 67.2233 262.199 80.9309C283.816 128.905 276.597 187.185 239.129 228.797ZM46.5208 197.293C36.6172 208.293 18.9768 207.413 12.8518 193.939C-8.99195 145.887 -1.83904 87.3936 35.7362 45.6621C73.2739 3.97214 130.622 -9.27099 180.659 7.35407C194.782 12.0466 197.517 29.5954 187.559 40.6552V40.6552C182.305 46.4894 173.874 47.9874 166.4 45.5855C157.135 42.608 147.255 41 137 41C83.9808 41 41.0002 83.9806 41.0002 137C41.0002 150.829 43.9244 163.976 49.1882 175.854C52.3518 182.994 51.746 191.49 46.5208 197.293V197.293Z" fill="white"/>
</svg>
