<svg width="20" height="19" viewBox="0 0 20 19" xmlns="http://www.w3.org/2000/svg">
<path d="M9.99121 18.7422C14.9746 18.7422 19.0879 14.6289 19.0879 9.6543C19.0879 4.67969 14.9658 0.566406 9.98242 0.566406C5.00781 0.566406 0.90332 4.67969 0.90332 9.6543C0.90332 14.6289 5.0166 18.7422 9.99121 18.7422ZM5.56152 10.7617C5.16602 10.7617 4.8584 10.4541 4.8584 10.0586C4.8584 9.66309 5.16602 9.35547 5.56152 9.35547H9.28809V4.31055C9.28809 3.91504 9.5957 3.60742 9.98242 3.60742C10.3867 3.60742 10.6943 3.91504 10.6943 4.31055V10.0586C10.6943 10.4541 10.3867 10.7617 9.98242 10.7617H5.56152Z" fill="#000000"/>
</svg>
