<svg width="68" height="69" viewBox="0 0 68 69" fill="none" xmlns="http://www.w3.org/2000/svg">
<path d="M2.05039 13.0697C-0.683279 10.336 -0.683277 5.90386 2.05039 3.17019C4.78406 0.436522 9.21622 0.436522 11.9499 3.17019L38.4664 29.6867L64.9829 56.2032C67.7166 58.9369 67.7166 63.369 64.9829 66.1027C62.2492 68.8364 57.8171 68.8364 55.0834 66.1027L2.05039 13.0697Z" fill="black"/>
<path d="M11.9497 65.3955C9.21607 68.1291 4.78392 68.1291 2.05025 65.3955C-0.683418 62.6618 -0.683418 58.2296 2.05025 55.496L55.496 2.05025C58.2296 -0.683419 62.6618 -0.683416 65.3955 2.05025C68.1291 4.78392 68.1291 9.21608 65.3955 11.9497L11.9497 65.3955Z" fill="black"/>
</svg>
