<svg width="22" height="21" viewBox="0 0 22 21" xmlns="http://www.w3.org/2000/svg">
<path d="M11 19.3818C11.2109 19.3818 11.4131 19.3642 11.6328 19.3466L12.125 20.2782C12.2305 20.5156 12.4678 20.6298 12.7402 20.5947C12.9951 20.5507 13.1709 20.3574 13.2061 20.0937L13.3555 19.0478C13.7686 18.9423 14.1729 18.7841 14.5596 18.6171L15.333 19.3115C15.5176 19.496 15.7725 19.5224 16.0273 19.3906C16.2471 19.2587 16.335 19.0214 16.291 18.7577L16.0713 17.7382C16.4141 17.4921 16.748 17.2197 17.0645 16.9208L18.0137 17.3163C18.2686 17.4218 18.5059 17.3603 18.6992 17.1406C18.8574 16.956 18.8838 16.6923 18.7432 16.4638L18.1895 15.5761C18.4268 15.2333 18.6289 14.8554 18.8135 14.4599L19.8682 14.5126C20.123 14.5302 20.3516 14.3808 20.4395 14.1347C20.5273 13.8886 20.4395 13.6337 20.2373 13.4755L19.4199 12.8251C19.5254 12.4208 19.6045 11.999 19.6396 11.5595L20.6328 11.2431C20.8877 11.1552 21.0459 10.9531 21.0459 10.6894C21.0459 10.4257 20.8877 10.2236 20.6328 10.1357L19.6396 9.81927C19.6045 9.37981 19.5166 8.96673 19.4199 8.55364L20.2373 7.90325C20.4395 7.75384 20.5186 7.50774 20.4395 7.26165C20.3516 7.00677 20.123 6.85735 19.8682 6.87493L18.8135 6.91009C18.6289 6.52337 18.4268 6.15423 18.1895 5.80266L18.7432 4.90618C18.875 4.69524 18.8574 4.43157 18.6992 4.247C18.5059 4.02727 18.2686 3.96575 18.0137 4.07122L17.0557 4.45794C16.748 4.1679 16.4141 3.88665 16.0713 3.64934L16.291 2.62981C16.335 2.35735 16.2471 2.12005 16.0186 1.997C15.7725 1.86516 15.5176 1.88274 15.333 2.0761L14.5596 2.76165C14.1729 2.58587 13.7686 2.44524 13.3555 2.33098L13.2061 1.30266C13.1709 1.03899 12.9951 0.845633 12.7402 0.792899C12.4678 0.757742 12.2393 0.872 12.125 1.09173L11.6328 2.03216C11.4131 2.01458 11.2109 2.00579 11 2.00579C10.7715 2.00579 10.5693 2.01458 10.3496 2.03216L9.85742 1.09173C9.75195 0.872 9.51465 0.757742 9.24219 0.801688C8.9873 0.845633 8.81152 1.03899 8.77637 1.30266L8.62695 2.33098C8.22266 2.44524 7.81836 2.58587 7.42285 2.76165L6.6582 2.0761C6.46484 1.89153 6.20996 1.86516 5.96387 1.997C5.74414 2.12005 5.64746 2.35735 5.69141 2.62981L5.91113 3.64934C5.56836 3.88665 5.23438 4.1679 4.92676 4.45794L3.96875 4.07122C3.72266 3.96575 3.47656 4.02727 3.29199 4.247C3.125 4.43157 3.10742 4.69524 3.23926 4.90618L3.80176 5.80266C3.56445 6.15423 3.3623 6.52337 3.16895 6.91009L2.12305 6.87493C1.85938 6.85735 1.63086 7.00677 1.55176 7.26165C1.46387 7.50774 1.53418 7.75384 1.74512 7.90325L2.57129 8.55364C2.46582 8.96673 2.37793 9.37981 2.35156 9.81927L1.3584 10.1357C1.09473 10.2236 0.945312 10.4169 0.945312 10.6894C0.945312 10.9531 1.09473 11.1552 1.3584 11.2431L2.35156 11.5595C2.37793 11.999 2.46582 12.4208 2.57129 12.8251L1.75391 13.4755C1.54297 13.6249 1.47266 13.8798 1.55176 14.1259C1.63086 14.3808 1.85938 14.5302 2.12305 14.5126L3.16895 14.4599C3.35352 14.8554 3.56445 15.2333 3.80176 15.5761L3.23926 16.4726C3.09863 16.6923 3.125 16.956 3.29199 17.1406C3.47656 17.3603 3.72266 17.4218 3.96875 17.3163L4.92676 16.9208C5.23438 17.2197 5.56836 17.4921 5.91113 17.7382L5.69141 18.7577C5.64746 19.0214 5.73535 19.2587 5.96387 19.3906C6.20996 19.5224 6.46484 19.496 6.6582 19.3115L7.42285 18.6171C7.81836 18.7841 8.21387 18.9423 8.62695 19.0566L8.77637 20.0937C8.81152 20.3574 8.9873 20.5507 9.25098 20.5947C9.51465 20.6298 9.75195 20.5156 9.85742 20.287L10.3496 19.3466C10.5693 19.3642 10.7715 19.3818 11 19.3818ZM13.2939 9.99505C12.8633 8.86126 11.9844 8.24602 10.9473 8.24602C10.7979 8.24602 10.6396 8.2636 10.3672 8.32513L7.99414 4.247C8.89941 3.82513 9.91016 3.58782 10.9912 3.58782C14.709 3.58782 17.627 6.38274 17.9609 9.99505H13.2939ZM3.99512 10.6982C3.99512 8.3427 5.07617 6.27727 6.79004 4.98528L9.18066 9.0722C8.71484 9.58196 8.49512 10.1445 8.49512 10.7245C8.49512 11.2782 8.69727 11.8056 9.18066 12.3417L6.71973 16.3583C5.0498 15.0663 3.99512 13.0185 3.99512 10.6982ZM9.89258 10.7157C9.89258 10.1181 10.3936 9.66106 10.9561 9.66106C11.5449 9.66106 12.0283 10.1181 12.0283 10.7157C12.0283 11.2958 11.5449 11.7792 10.9561 11.7792C10.3936 11.7792 9.89258 11.2958 9.89258 10.7157ZM10.9912 17.7997C9.88379 17.7997 8.84668 17.5536 7.92383 17.1054L10.3584 13.1152C10.6221 13.1679 10.7979 13.1855 10.9473 13.1855C11.9932 13.1855 12.8633 12.5527 13.2939 11.3925H17.9609C17.627 15.0048 14.709 17.7997 10.9912 17.7997Z" fill="#000000"/>
</svg>
