<svg width="32" height="32" viewBox="0 0 32 32" xmlns="http://www.w3.org/2000/svg">
<path d="M30.9937 10.4125C31.1937 10.9563 31.025 11.5625 30.5937 11.95L27.8875 14.4125C27.9562 14.9313 27.9937 15.4625 27.9937 16C27.9937 16.5375 27.9562 17.0687 27.8875 17.5875L30.5937 20.05C31.025 20.4375 31.1937 21.0437 30.9937 21.5875C30.7187 22.3312 30.3875 23.0438 30.0062 23.7313L29.7125 24.2375C29.3 24.925 28.8375 25.575 28.3312 26.1875C27.9625 26.6375 27.35 26.7875 26.8 26.6125L23.3187 25.5063C22.4812 26.15 21.5562 26.6875 20.5687 27.0938L19.7875 30.6625C19.6625 31.2313 19.225 31.6812 18.65 31.775C17.7875 31.9187 16.9 31.9937 15.9937 31.9937C15.0875 31.9937 14.2 31.9187 13.3375 31.775C12.7625 31.6812 12.325 31.2313 12.2 30.6625L11.4187 27.0938C10.4312 26.6875 9.50624 26.15 8.66874 25.5063L5.19374 26.6187C4.64374 26.7937 4.03124 26.6375 3.66249 26.1938C3.15624 25.5813 2.69374 24.9312 2.28124 24.2437L1.98749 23.7375C1.60624 23.05 1.27499 22.3375 0.999992 21.5938C0.799992 21.05 0.968742 20.4437 1.39999 20.0562L4.10624 17.5938C4.03749 17.0688 3.99999 16.5375 3.99999 16C3.99999 15.4625 4.03749 14.9313 4.10624 14.4125L1.39999 11.95C0.968742 11.5625 0.799992 10.9563 0.999992 10.4125C1.27499 9.66875 1.60624 8.95625 1.98749 8.26875L2.28124 7.7625C2.69374 7.075 3.15624 6.425 3.66249 5.8125C4.03124 5.3625 4.64374 5.2125 5.19374 5.3875L8.67499 6.49375C9.51249 5.85 10.4375 5.3125 11.425 4.90625L12.2062 1.3375C12.3312 0.76875 12.7687 0.31875 13.3437 0.225C14.2062 0.075 15.0937 0 16 0C16.9062 0 17.7937 0.075 18.6562 0.21875C19.2312 0.3125 19.6687 0.7625 19.7937 1.33125L20.575 4.9C21.5625 5.30625 22.4875 5.84375 23.325 6.4875L26.8062 5.38125C27.3562 5.20625 27.9687 5.3625 28.3375 5.80625C28.8437 6.41875 29.3062 7.06875 29.7187 7.75625L30.0125 8.2625C30.3937 8.95 30.725 9.6625 31 10.4062L30.9937 10.4125ZM16 21C17.3261 21 18.5978 20.4732 19.5355 19.5355C20.4732 18.5979 21 17.3261 21 16C21 14.6739 20.4732 13.4021 19.5355 12.4645C18.5978 11.5268 17.3261 11 16 11C14.6739 11 13.4021 11.5268 12.4645 12.4645C11.5268 13.4021 11 14.6739 11 16C11 17.3261 11.5268 18.5979 12.4645 19.5355C13.4021 20.4732 14.6739 21 16 21Z" fill="#000000"/>
</svg>
