<svg width="69" height="69" viewBox="0 0 69 69" xmlns="http://www.w3.org/2000/svg">
<path fill-rule="evenodd" clip-rule="evenodd" d="M34.5 0C15.4462 0 0 15.4462 0 34.5C0 53.5538 15.4462 69 34.5 69C53.5538 69 69 53.5538 69 34.5C69 15.4462 53.5538 0 34.5 0ZM18.0929 48.4916C18.114 48.1489 18.1898 47.7949 18.3282 47.4371L25.4414 27.4955C25.9076 26.2946 26.8401 25.3621 28.041 24.8958L47.4376 18.3285C47.7922 18.1914 48.1432 18.1128 48.4833 18.0858C50.5301 17.9231 52.1834 19.628 51.8514 21.6965C51.8121 21.9416 51.7449 22.1919 51.6472 22.4447L43.9925 40.4948C43.5404 41.6957 42.6232 42.6569 41.4222 43.1232L22.6188 51.6332C22.3117 51.7519 22.0062 51.8258 21.7074 51.8594C19.6874 52.0871 17.9702 50.4796 18.0929 48.4916ZM34.5 62.5312C19.0188 62.5312 6.46875 49.9812 6.46875 34.5C6.46875 19.0188 19.0188 6.46875 34.5 6.46875C49.9812 6.46875 62.5312 19.0188 62.5312 34.5C62.5312 49.9812 49.9812 62.5312 34.5 62.5312ZM30.8345 34.2844C30.8345 36.6661 32.7653 38.5969 35.147 38.5969C37.5287 38.5969 39.4595 36.6661 39.4595 34.2844C39.4595 31.9026 37.5287 29.9719 35.147 29.9719C32.7653 29.9719 30.8345 31.9026 30.8345 34.2844Z" fill="#000000"/>
</svg>
