<svg width="16" height="20" viewBox="0 0 16 20" fill="none" xmlns="http://www.w3.org/2000/svg">
<path d="M2.86523 19.0459H12.2344C14.124 19.0459 15.0996 18.0527 15.0996 16.1543V8.17383C15.0996 6.94336 14.9414 6.38086 14.1768 5.59863L9.58008 0.931641C8.83301 0.175781 8.21777 0 7.11035 0H2.86523C0.984375 0 0 0.993164 0 2.90039V16.1543C0 18.0527 0.984375 19.0459 2.86523 19.0459ZM3.01465 17.2881C2.1709 17.2881 1.74902 16.8486 1.74902 16.04V3.00586C1.74902 2.20605 2.1709 1.75781 3.02344 1.75781H6.75V6.53906C6.75 7.81348 7.37402 8.42871 8.63965 8.42871H13.3506V16.04C13.3506 16.8486 12.9287 17.2881 12.0762 17.2881H3.01465ZM8.80664 6.89062C8.4375 6.89062 8.2793 6.73242 8.2793 6.37207V1.98633L13.1133 6.89062H8.80664Z" fill="black"/>
</svg>
