<svg width="24" height="17" viewBox="0 0 24 17" xmlns="http://www.w3.org/2000/svg">
<path d="M0.266602 8.66309C0.266602 11.625 1.37402 14.3408 3.30762 16.3711C3.65039 16.7402 4.14258 16.7139 4.43262 16.3887C4.72266 16.0811 4.66113 15.624 4.33594 15.2725C2.6748 13.5322 1.76953 11.2031 1.76953 8.66309C1.76953 6.12305 2.6748 3.79395 4.33594 2.05371C4.66113 1.70215 4.72266 1.24512 4.43262 0.928711C4.14258 0.612305 3.65039 0.585938 3.30762 0.955078C1.37402 2.97656 0.266602 5.70117 0.266602 8.66309ZM23.7246 8.66309C23.7246 5.70117 22.6172 2.97656 20.6836 0.955078C20.332 0.585938 19.8398 0.612305 19.5498 0.928711C19.2686 1.24512 19.3213 1.70215 19.6553 2.05371C21.3164 3.79395 22.2217 6.12305 22.2217 8.66309C22.2217 11.2031 21.3164 13.5322 19.6553 15.2725C19.3213 15.624 19.2686 16.0811 19.5498 16.3887C19.8398 16.7139 20.332 16.7402 20.6836 16.3711C22.6172 14.3408 23.7246 11.625 23.7246 8.66309ZM3.46582 8.66309C3.46582 10.7725 4.22168 12.7324 5.5752 14.2002C5.92676 14.5869 6.43652 14.5869 6.73535 14.2441C7.03418 13.9102 6.95508 13.4883 6.62109 13.1191C5.54883 11.915 4.96875 10.3594 4.96875 8.66309C4.96875 6.95801 5.54883 5.41113 6.62109 4.20703C6.95508 3.83789 7.03418 3.40723 6.73535 3.08203C6.43652 2.73047 5.92676 2.73926 5.5752 3.11719C4.22168 4.59375 3.46582 6.55371 3.46582 8.66309ZM20.5166 8.66309C20.5166 6.55371 19.7607 4.59375 18.416 3.11719C18.0645 2.73926 17.5459 2.73047 17.2471 3.08203C16.957 3.40723 17.0273 3.83789 17.3613 4.20703C18.4336 5.41113 19.0137 6.95801 19.0137 8.66309C19.0137 10.3594 18.4336 11.915 17.3613 13.1191C17.0273 13.4883 16.957 13.9102 17.2471 14.2441C17.5459 14.5869 18.0645 14.5869 18.416 14.2002C19.7607 12.7324 20.5166 10.7725 20.5166 8.66309ZM6.67383 8.66309C6.67383 9.8584 7.07812 10.9834 7.78125 11.8711C8.10645 12.2842 8.66016 12.293 8.96777 11.9414C9.25781 11.6162 9.15234 11.2207 8.8623 10.8164C8.41406 10.2275 8.16797 9.48047 8.16797 8.66309C8.16797 7.8457 8.41406 7.09863 8.8623 6.50977C9.15234 6.09668 9.25781 5.70117 8.96777 5.37598C8.66016 5.0332 8.10645 5.04199 7.78125 5.44629C7.07812 6.34277 6.67383 7.46777 6.67383 8.66309ZM17.3174 8.66309C17.3174 7.46777 16.9131 6.34277 16.2012 5.44629C15.8848 5.04199 15.3311 5.0332 15.0234 5.37598C14.7246 5.70117 14.8301 6.09668 15.1289 6.50977C15.5771 7.09863 15.8145 7.8457 15.8145 8.66309C15.8145 9.48047 15.5771 10.2275 15.1289 10.8164C14.8301 11.2207 14.7246 11.6162 15.0234 11.9414C15.3311 12.293 15.8848 12.2842 16.2012 11.8711C16.9131 10.9834 17.3174 9.8584 17.3174 8.66309ZM11.9912 10.8076C13.1514 10.8076 14.1357 9.83203 14.1357 8.6543C14.1357 7.47656 13.1514 6.50977 11.9912 6.50977C10.8398 6.50977 9.84668 7.47656 9.84668 8.6543C9.84668 9.83203 10.8398 10.8076 11.9912 10.8076Z" fill="#000000"/>
</svg>
