<svg width="32" height="32" viewBox="0 0 32 32" xmlns="http://www.w3.org/2000/svg">
<path d="M29.475 1.35615C28.1063 -0.0125977 25.8937 -0.0125977 24.525 1.35615L22.6437 3.23115L28.7625 9.3499L30.6437 7.46865C32.0125 6.0999 32.0125 3.8874 30.6437 2.51865L29.475 1.35615ZM10.775 15.1062C10.3937 15.4874 10.1 15.9562 9.93125 16.4749L8.08125 22.0249C7.9 22.5624 8.04375 23.1562 8.44375 23.5624C8.84375 23.9687 9.4375 24.1062 9.98125 23.9249L15.5312 22.0749C16.0437 21.9062 16.5125 21.6124 16.9 21.2312L27.3563 10.7687L21.2313 4.64365L10.775 15.1062ZM6 3.9999C2.6875 3.9999 0 6.6874 0 9.9999V25.9999C0 29.3124 2.6875 31.9999 6 31.9999H22C25.3125 31.9999 28 29.3124 28 25.9999V19.9999C28 18.8937 27.1063 17.9999 26 17.9999C24.8937 17.9999 24 18.8937 24 19.9999V25.9999C24 27.1062 23.1063 27.9999 22 27.9999H6C4.89375 27.9999 4 27.1062 4 25.9999V9.9999C4 8.89365 4.89375 7.9999 6 7.9999H12C13.1063 7.9999 14 7.10615 14 5.9999C14 4.89365 13.1063 3.9999 12 3.9999H6Z" fill="#000000"/>
</svg>
