<svg width="18" height="18" viewBox="0 0 18 18" xmlns="http://www.w3.org/2000/svg">
<path d="M16.7275 2.61426L17.3867 1.91992C17.7207 1.56836 17.7471 1.08496 17.4131 0.750979L17.1846 0.513674C16.8857 0.214846 16.3848 0.258791 16.0596 0.583987L15.374 1.25196L16.7275 2.61426ZM6.32129 11.9658L8.12305 11.21L16.0859 3.24707L14.7324 1.90235L6.76953 9.87403L5.97852 11.6143C5.89062 11.8164 6.11914 12.0449 6.32129 11.9658ZM2.98145 17.8633H13.2207C14.9082 17.8633 15.9014 16.8789 15.9014 14.998V5.7168L14.1436 7.46582V14.8398C14.1436 15.6836 13.6953 16.1055 13.1064 16.1055H3.0957C2.28711 16.1055 1.84766 15.6836 1.84766 14.8398V5.0752C1.84766 4.23145 2.28711 3.80957 3.0957 3.80957H10.5576L12.3066 2.05176H2.98145C1.08301 2.05176 0.0898438 3.03614 0.0898438 4.91699V14.998C0.0898438 16.8789 1.08301 17.8633 2.98145 17.8633Z" fill="#000000"/>
</svg>
