<svg width="28" height="8" viewBox="0 0 28 8" xmlns="http://www.w3.org/2000/svg">
<path d="M0.5 4C0.5 3.07174 0.868749 2.1815 1.52513 1.52513C2.1815 0.868749 3.07174 0.5 4 0.5C4.92826 0.5 5.8185 0.868749 6.47487 1.52513C7.13125 2.1815 7.5 3.07174 7.5 4C7.5 4.92826 7.13125 5.8185 6.47487 6.47487C5.8185 7.13125 4.92826 7.5 4 7.5C3.07174 7.5 2.1815 7.13125 1.52513 6.47487C0.868749 5.8185 0.5 4.92826 0.5 4ZM10.5 4C10.5 3.07174 10.8687 2.1815 11.5251 1.52513C12.1815 0.868749 13.0717 0.5 14 0.5C14.9283 0.5 15.8185 0.868749 16.4749 1.52513C17.1313 2.1815 17.5 3.07174 17.5 4C17.5 4.92826 17.1313 5.8185 16.4749 6.47487C15.8185 7.13125 14.9283 7.5 14 7.5C13.0717 7.5 12.1815 7.13125 11.5251 6.47487C10.8687 5.8185 10.5 4.92826 10.5 4ZM24 0.5C24.9283 0.5 25.8185 0.868749 26.4749 1.52513C27.1313 2.1815 27.5 3.07174 27.5 4C27.5 4.92826 27.1313 5.8185 26.4749 6.47487C25.8185 7.13125 24.9283 7.5 24 7.5C23.0717 7.5 22.1815 7.13125 21.5251 6.47487C20.8687 5.8185 20.5 4.92826 20.5 4C20.5 3.07174 20.8687 2.1815 21.5251 1.52513C22.1815 0.868749 23.0717 0.5 24 0.5Z" fill="#000000"/>
</svg>
