<svg width="20" height="19" viewBox="0 0 20 19" fill="none" xmlns="http://www.w3.org/2000/svg">
<path d="M5.55469 18.5449C6.05566 18.5449 6.4248 18.2988 7.03125 17.7627L10.0459 15.1084H15.3369C17.9824 15.1084 19.4678 13.5791 19.4678 10.9688V4.13965C19.4678 1.5293 17.9824 0 15.3369 0H4.13086C1.49414 0 0 1.5293 0 4.13965V10.9688C0 13.5879 1.53809 15.1084 4.06934 15.1084H4.42969V17.2617C4.42969 18.0439 4.84277 18.5449 5.55469 18.5449ZM5.99414 16.5762V14.0713C5.99414 13.5527 5.76562 13.3506 5.27344 13.3506H4.19238C2.54004 13.3506 1.74902 12.5156 1.74902 10.916V4.19238C1.74902 2.59277 2.54004 1.75781 4.19238 1.75781H15.2842C16.9277 1.75781 17.7188 2.59277 17.7188 4.19238V10.916C17.7188 12.5156 16.9277 13.3506 15.2842 13.3506H9.94922C9.41309 13.3506 9.14941 13.4385 8.78027 13.8252L5.99414 16.5762ZM9.73828 9.00879C10.2217 9.00879 10.4941 8.73633 10.5117 8.22656L10.6436 3.99902C10.6611 3.48047 10.2744 3.10254 9.72949 3.10254C9.18457 3.10254 8.80664 3.47168 8.82422 3.99023L8.94727 8.22656C8.96484 8.72754 9.24609 9.00879 9.73828 9.00879ZM9.73828 11.9268C10.3096 11.9268 10.7754 11.5137 10.7754 10.9512C10.7754 10.3975 10.3096 9.98438 9.73828 9.98438C9.16699 9.98438 8.70117 10.3975 8.70117 10.9512C8.70117 11.5049 9.17578 11.9268 9.73828 11.9268Z" fill="black"/>
</svg>
