<svg width="20" height="19" viewBox="0 0 20 19" xmlns="http://www.w3.org/2000/svg">
<path d="M9.99121 18.7422C14.9746 18.7422 19.0879 14.6289 19.0879 9.6543C19.0879 4.67969 14.9658 0.566406 9.98242 0.566406C5.00781 0.566406 0.90332 4.67969 0.90332 9.6543C0.90332 14.6289 5.0166 18.7422 9.99121 18.7422ZM9.99121 16.9316C5.95703 16.9316 2.73145 13.6885 2.73145 9.6543C2.73145 5.62012 5.95703 2.38574 9.98242 2.38574C14.0166 2.38574 17.2598 5.62012 17.2686 9.6543C17.2773 13.6885 14.0254 16.9316 9.99121 16.9316ZM9.98242 11.1133C10.4658 11.1133 10.7471 10.8408 10.7559 10.3311L10.8877 6.10352C10.9053 5.58496 10.5186 5.20703 9.97363 5.20703C9.42871 5.20703 9.05078 5.57617 9.06836 6.09473L9.19141 10.3311C9.20898 10.832 9.49023 11.1133 9.98242 11.1133ZM9.98242 14.0312C10.5537 14.0312 11.0195 13.6182 11.0195 13.0557C11.0195 12.502 10.5625 12.0889 9.98242 12.0889C9.41113 12.0889 8.94531 12.502 8.94531 13.0557C8.94531 13.6094 9.41992 14.0312 9.98242 14.0312Z" fill="#000000"/>
</svg>
