<svg width="24" height="16" viewBox="0 0 24 16" fill="none" xmlns="http://www.w3.org/2000/svg">
<path d="M18.3281 15.6504C21.0703 15.6504 23.2324 13.6377 23.2324 11.124C23.2324 9.26074 22.1689 7.59961 20.4199 6.87012C20.4287 2.88867 17.5635 0.0234375 13.8809 0.0234375C11.543 0.0234375 9.78516 1.23633 8.68652 2.82715C6.4541 2.22949 4.10742 3.89062 4.01953 6.36914C2.00684 6.72949 0.767578 8.54004 0.767578 10.7373C0.767578 13.418 3.10547 15.6504 6.18164 15.6504H18.3281ZM12.0088 9.67383C11.4902 9.67383 11.2002 9.38379 11.1826 8.85645L11.0508 5.20898C11.0332 4.67285 11.4287 4.28613 12 4.28613C12.5625 4.28613 12.9756 4.68164 12.958 5.21777L12.8262 8.85645C12.7998 9.39258 12.5098 9.67383 12.0088 9.67383ZM12 12.9697C11.4199 12.9697 10.9277 12.5566 10.9277 11.9678C10.9277 11.3789 11.4111 10.9658 12 10.9658C12.5889 10.9658 13.0723 11.3789 13.0723 11.9678C13.0723 12.5654 12.5889 12.9697 12 12.9697Z" fill="black"/>
</svg>
