<svg width="32" height="26" viewBox="0 0 32 26" xmlns="http://www.w3.org/2000/svg">
<path d="M16 0.555664C11.5111 0.555664 7.91662 2.60011 5.29995 5.03344C2.69995 7.44455 0.961065 10.3334 0.138843 12.3168C-0.0444906 12.7557 -0.0444906 13.2446 0.138843 13.6834C0.961065 15.6668 2.69995 18.5557 5.29995 20.9668C7.91662 23.4001 11.5111 25.4446 16 25.4446C20.4888 25.4446 24.0833 23.4001 26.7 20.9668C29.3 18.5501 31.0388 15.6668 31.8666 13.6834C32.05 13.2446 32.05 12.7557 31.8666 12.3168C31.0388 10.3334 29.3 7.44455 26.7 5.03344C24.0833 2.60011 20.4888 0.555664 16 0.555664ZM7.99995 13.0001C7.99995 10.8784 8.84281 8.84355 10.3431 7.34325C11.8434 5.84296 13.8782 5.00011 16 5.00011C18.1217 5.00011 20.1565 5.84296 21.6568 7.34325C23.1571 8.84355 24 10.8784 24 13.0001C24 15.1218 23.1571 17.1567 21.6568 18.657C20.1565 20.1573 18.1217 21.0001 16 21.0001C13.8782 21.0001 11.8434 20.1573 10.3431 18.657C8.84281 17.1567 7.99995 15.1218 7.99995 13.0001ZM16 9.44455C16 11.4057 14.4055 13.0001 12.4444 13.0001C12.05 13.0001 11.6722 12.9334 11.3166 12.8168C11.0111 12.7168 10.6555 12.9057 10.6666 13.2279C10.6833 13.6112 10.7388 13.9946 10.8444 14.3779C11.6055 17.2223 14.5333 18.9112 17.3777 18.1501C20.2222 17.389 21.9111 14.4612 21.15 11.6168C20.5333 9.31122 18.4944 7.76122 16.2277 7.66678C15.9055 7.65566 15.7166 8.00566 15.8166 8.31678C15.9333 8.67233 16 9.05011 16 9.44455Z" fill="#000000"/>
</svg>
