<svg width="32" height="26" viewBox="0 0 32 26" xmlns="http://www.w3.org/2000/svg">
<path d="M1.94004 0.454988C1.42004 0.0449881 0.665037 0.139988 0.255037 0.659988C-0.154963 1.17999 -0.0599631 1.93499 0.460037 2.34499L30.06 25.545C30.58 25.955 31.335 25.86 31.745 25.34C32.155 24.82 32.06 24.065 31.54 23.655L26.28 19.535C28.26 17.505 29.6 15.23 30.275 13.615C30.44 13.22 30.44 12.78 30.275 12.385C29.53 10.6 27.965 7.99999 25.625 5.82999C23.275 3.63999 20.04 1.79999 16 1.79999C12.59 1.79999 9.75004 3.11499 7.53504 4.83999L1.94004 0.454988ZM11.155 7.67499C12.43 6.50999 14.135 5.79999 16 5.79999C19.975 5.79999 23.2 9.02499 23.2 13C23.2 14.245 22.885 15.415 22.33 16.435L20.4 14.925C20.82 13.96 20.93 12.855 20.64 11.76C20.085 9.68499 18.25 8.28999 16.21 8.20499C15.92 8.19499 15.75 8.50999 15.84 8.78999C15.945 9.10999 16.005 9.44999 16.005 9.80499C16.005 10.315 15.885 10.795 15.675 11.22L11.16 7.67999L11.155 7.67499ZM18.65 19.695C17.83 20.02 16.935 20.2 16 20.2C12.025 20.2 8.80004 16.975 8.80004 13C8.80004 12.655 8.82504 12.32 8.87004 11.99L4.15504 8.27499C3.01504 9.75999 2.20004 11.24 1.72504 12.385C1.56004 12.78 1.56004 13.22 1.72504 13.615C2.47004 15.4 4.03504 18 6.37504 20.17C8.72504 22.36 11.96 24.2 16 24.2C18.39 24.2 20.495 23.555 22.31 22.575L18.65 19.695Z" fill="#000000"/>
</svg>
