<svg width="20" height="19" viewBox="0 0 20 19" xmlns="http://www.w3.org/2000/svg">
<path d="M10 18.7334C14.9658 18.7334 19.0791 14.6289 19.0791 9.6543C19.0791 4.68848 14.9658 0.575195 9.99121 0.575195C5.02539 0.575195 0.920898 4.68848 0.920898 9.6543C0.920898 14.6289 5.03418 18.7334 10 18.7334ZM10 16.9492C5.95703 16.9492 2.71387 13.6973 2.71387 9.6543C2.71387 5.61133 5.94824 2.36816 9.99121 2.36816C14.0342 2.36816 17.2861 5.61133 17.2949 9.6543C17.2949 13.6973 14.043 16.9492 10 16.9492ZM13.9639 14.2422C14.1309 14.4092 14.4121 14.418 14.5791 14.2422C14.7549 14.0664 14.7549 13.8027 14.5791 13.627L6.00977 5.05762C5.84277 4.88184 5.56152 4.88184 5.38574 5.05762C5.21875 5.22461 5.21875 5.50586 5.38574 5.67285L13.9639 14.2422ZM12.3379 10.4014L14.0605 12.1328C15.3086 11.2363 16.0469 10.1465 16.0469 9.6543C16.0469 8.75781 13.5947 5.84863 9.99121 5.84863C9.31445 5.84863 8.67285 5.9541 8.08398 6.13867L9.25293 7.31641C9.48145 7.22852 9.73633 7.18457 9.99121 7.18457C11.3623 7.18457 12.4697 8.2832 12.4697 9.66309C12.4697 9.91797 12.4258 10.1641 12.3379 10.4014ZM11.916 13.1787L10.7383 11.9922C10.501 12.0801 10.2549 12.1328 9.99121 12.1328C8.62012 12.1328 7.5127 10.999 7.50391 9.66309C7.50391 9.39941 7.55664 9.13574 7.64453 8.90723L5.93066 7.19336C4.68262 8.08105 3.93555 9.1709 3.93555 9.6543C3.93555 10.5596 6.42285 13.4688 9.99121 13.4688C10.6768 13.4688 11.3271 13.3545 11.916 13.1787ZM10.2637 8.32715L11.3184 9.38184C11.3008 8.82812 10.8438 8.34473 10.2637 8.32715ZM9.72754 10.9814L8.66406 9.91797C8.65527 10.4629 9.12988 10.9814 9.72754 10.9814Z" fill="#000000"/>
</svg>
