<svg width="26" height="17" viewBox="0 0 26 17" fill="none" xmlns="http://www.w3.org/2000/svg">
<path d="M19.9346 16.4414C20.2158 16.7139 20.6465 16.7315 20.9277 16.4414C21.2178 16.1426 21.2002 15.7207 20.9277 15.4483L6.02148 0.550794C5.74902 0.278333 5.29199 0.269544 5.01953 0.550794C4.75586 0.814466 4.75586 1.2715 5.01953 1.53517L19.9346 16.4414ZM13.0088 1.05177C11.4707 1.05177 10.082 1.31544 8.79004 1.74611L10.2139 3.16993C11.1016 2.92384 12.0156 2.77443 13.0088 2.77443C18.5986 2.77443 23.0371 7.63478 23.0371 8.6631C23.0371 9.35744 21.6309 11.1416 19.3896 12.5479L20.708 13.875C23.4678 12.0645 25.0762 9.70021 25.0762 8.6631C25.0762 6.86134 20.2246 1.05177 13.0088 1.05177ZM13.0088 16.2832C14.626 16.2832 16.1113 16.002 17.4561 15.5361L16.0322 14.1123C15.083 14.3936 14.0811 14.5606 13.0088 14.5606C7.40137 14.5606 2.96289 9.89357 2.96289 8.6631C2.96289 8.07423 4.44824 6.18458 6.83008 4.70802L5.48535 3.36329C2.62012 5.19142 0.923828 7.6172 0.923828 8.6631C0.923828 10.4649 5.88086 16.2832 13.0088 16.2832ZM17.377 10.3418C17.6055 9.83204 17.7285 9.25197 17.7285 8.6631C17.7285 6.03517 15.6279 3.95216 13.0088 3.95216C12.4023 3.95216 11.8398 4.07521 11.3213 4.28615L17.377 10.3418ZM13.0088 13.3828C13.6768 13.3828 14.3096 13.2246 14.8809 12.9522L8.70215 6.77345C8.4209 7.34474 8.27148 7.98634 8.27148 8.67189C8.28027 11.2295 10.3721 13.3828 13.0088 13.3828Z" fill="#000000"/>
</svg>
