<svg width="10" height="21" viewBox="0 0 10 21" fill="none" xmlns="http://www.w3.org/2000/svg">
<path d="M0 2.38081H9.45138V1.85973C9.45138 0.628894 8.8135 0 7.62759 0H1.82379C0.637878 0 0 0.628894 0 1.85973V2.38081ZM3.65657 20.466H5.79481C6.98073 20.466 7.60962 19.8461 7.60962 18.6063V9.30764C7.60962 8.40023 7.81626 7.74438 8.15766 7.23228L8.72366 6.37878C9.17287 5.687 9.45138 5.05811 9.45138 4.27648V3.55774H0V4.27648C0 5.05811 0.269526 5.687 0.718736 6.37878L1.29373 7.23228C1.62614 7.74438 1.83278 8.40023 1.83278 9.30764V18.6063C1.83278 19.8461 2.47066 20.466 3.65657 20.466ZM4.72569 8.49007C5.49833 8.49007 6.00145 9.04709 6.00145 9.84669V12.3263C6.00145 13.108 5.49833 13.647 4.72569 13.656C3.95305 13.674 3.44993 13.1259 3.44993 12.3263V9.84669C3.44993 9.04709 3.95305 8.49007 4.72569 8.49007ZM4.72569 9.16389C4.30343 9.16389 3.94407 9.51427 3.94407 9.93653C3.94407 10.3588 4.30343 10.7182 4.72569 10.7182C5.14795 10.7182 5.50732 10.3588 5.50732 9.93653C5.50732 9.51427 5.14795 9.16389 4.72569 9.16389Z" fill="white"/>
</svg>
