<svg width="10" height="21" viewBox="0 0 10 21" fill="none" xmlns="http://www.w3.org/2000/svg">
<path d="M0 2.3291H9.24609V1.81934C9.24609 0.615234 8.62207 0 7.46191 0H1.78418C0.624023 0 0 0.615234 0 1.81934V2.3291ZM3.57715 20.0215H5.66895C6.8291 20.0215 7.44434 19.415 7.44434 18.2021V9.10547C7.44434 8.21777 7.64648 7.57617 7.98047 7.0752L8.53418 6.24023C8.97363 5.56348 9.24609 4.94824 9.24609 4.18359V3.48047H0V4.18359C0 4.94824 0.263672 5.56348 0.703125 6.24023L1.26562 7.0752C1.59082 7.57617 1.79297 8.21777 1.79297 9.10547V18.2021C1.79297 19.415 2.41699 20.0215 3.57715 20.0215ZM4.62305 13.3594C3.86719 13.3594 3.375 12.8145 3.375 12.0322V9.60645C3.375 8.82422 3.86719 8.29688 4.62305 8.30566C5.37891 8.31445 5.87109 8.8418 5.87109 9.60645V12.0322C5.87109 12.8145 5.37891 13.3594 4.62305 13.3594ZM4.62305 12.7002C5.03613 12.7002 5.3877 12.3574 5.3877 11.9443C5.3877 11.5312 5.03613 11.1797 4.62305 11.1797C4.20996 11.1797 3.8584 11.5312 3.8584 11.9443C3.8584 12.3574 4.20996 12.7002 4.62305 12.7002Z" fill="black"/>
</svg>
