<svg width="17" height="21" viewBox="0 0 17 21" fill="none" xmlns="http://www.w3.org/2000/svg">
<path fill-rule="evenodd" clip-rule="evenodd" d="M3 2.38081H12.4514V1.85973C12.4514 0.628894 11.8135 0 10.6276 0H4.82379C3.63788 0 3 0.628894 3 1.85973V2.38081ZM6.65657 20.466H8.79481C9.98073 20.466 10.6096 19.8461 10.6096 18.6063V15.5C10.0359 14.9227 9.29125 14.1702 8.52845 13.394C8.31777 13.5582 8.0447 13.6523 7.72569 13.656C6.95305 13.674 6.44993 13.1259 6.44993 12.3263V11.2624C5.51558 10.2934 4.83278 9.56316 4.83278 9.5V18.6063C4.83278 19.8461 5.47066 20.466 6.65657 20.466ZM4.5 3.55774L10.6096 9.6875V9.30764C10.6096 8.40023 10.8163 7.74438 11.1577 7.23228L11.7237 6.37878C12.1729 5.687 12.4514 5.05811 12.4514 4.27648V3.55774H4.5ZM6.95901 11.7884C6.94922 11.8364 6.94407 11.886 6.94407 11.9365C6.94407 12.3588 7.30343 12.7182 7.72569 12.7182C7.76943 12.7182 7.8125 12.7143 7.85457 12.7069C7.54838 12.394 7.24653 12.0846 6.95901 11.7884Z" fill="white"/>
<path d="M16.006 17.9983C15.7335 18.2708 15.2941 18.2708 15.0128 17.9983L0.194472 3.18877C-0.0604108 2.93389 -0.0691999 2.46807 0.194472 2.2044C0.458144 1.94073 0.915175 1.92315 1.19643 2.2044L16.006 17.0052C16.2785 17.2776 16.2697 17.7259 16.006 17.9983Z" fill="white"/>
</svg>
