<svg width="19" height="19" viewBox="0 0 19 19" fill="none" xmlns="http://www.w3.org/2000/svg">
<path d="M9.08789 18.1758C14.0713 18.1758 18.1846 14.0625 18.1846 9.08789C18.1846 4.11328 14.0625 0 9.0791 0C4.10449 0 0 4.11328 0 9.08789C0 14.0625 4.11328 18.1758 9.08789 18.1758ZM3.79688 3.57715C4.66699 2.74219 5.73926 2.10059 6.92578 1.74023C6.30176 2.36426 5.77441 3.25195 5.37891 4.32422C4.76367 4.13086 4.22754 3.87598 3.79688 3.57715ZM11.2588 1.74902C12.4453 2.10938 13.5088 2.74219 14.3789 3.58594C13.9482 3.88477 13.4209 4.13086 12.8057 4.33301C12.4102 3.25195 11.8828 2.37305 11.2588 1.74902ZM6.60059 4.63184C7.08398 3.33984 7.74316 2.39062 8.47266 2.04785V4.8252C7.80469 4.79883 7.18066 4.7373 6.60059 4.63184ZM9.70312 2.04785C10.4326 2.39062 11.1006 3.33984 11.5752 4.63184C11.0039 4.7373 10.3711 4.79883 9.70312 4.8252V2.04785ZM1.4502 8.47266C1.57324 6.9873 2.12695 5.61621 2.98828 4.49121C3.51562 4.88672 4.20996 5.22949 5.01855 5.48438C4.79004 6.38965 4.64941 7.40039 4.60547 8.47266H1.4502ZM13.5703 8.47266C13.5352 7.40039 13.3857 6.38965 13.1572 5.48438C13.9658 5.22949 14.6602 4.88672 15.1875 4.49121C16.0488 5.61621 16.6025 6.9873 16.7256 8.47266H13.5703ZM9.70312 8.47266V6.05566C10.4854 6.0293 11.2412 5.94141 11.9355 5.80078C12.1377 6.61816 12.2783 7.52344 12.3135 8.47266H9.70312ZM5.8623 8.47266C5.90625 7.52344 6.03809 6.61816 6.24023 5.80078C6.94336 5.94141 7.69043 6.0293 8.47266 6.05566V8.47266H5.8623ZM1.4502 9.70312H4.60547C4.64062 10.793 4.79004 11.8125 5.02734 12.7354C4.22754 12.9902 3.5332 13.3242 3.00586 13.7109C2.13574 12.5771 1.57324 11.1973 1.4502 9.70312ZM5.8623 9.70312H8.47266V12.1641C7.69922 12.1904 6.94336 12.2783 6.24902 12.4189C6.03809 11.584 5.90625 10.6611 5.8623 9.70312ZM9.70312 12.1641V9.70312H12.3223C12.2783 10.6611 12.1377 11.584 11.9268 12.4189C11.2324 12.2783 10.4854 12.1904 9.70312 12.1641ZM13.1572 12.7354C13.3857 11.8125 13.5352 10.793 13.5791 9.70312H16.7256C16.6025 11.1973 16.04 12.5771 15.1699 13.7109C14.6426 13.3242 13.957 12.9902 13.1572 12.7354ZM9.70312 13.3945C10.3711 13.4209 10.9863 13.4824 11.5664 13.5879C11.0918 14.8535 10.4326 15.7939 9.70312 16.1367V13.3945ZM6.61816 13.5879C7.18945 13.4824 7.81348 13.4209 8.47266 13.3945V16.1367C7.75195 15.7939 7.09277 14.8535 6.61816 13.5879ZM3.82324 14.6162C4.25391 14.3262 4.78125 14.0801 5.3877 13.8867C5.77441 14.9414 6.30176 15.8115 6.9082 16.4268C5.73926 16.0752 4.68457 15.4424 3.82324 14.6162ZM12.7969 13.8867C13.4033 14.0801 13.9307 14.3262 14.3613 14.6162C13.4912 15.4424 12.4365 16.0752 11.2676 16.4268C11.8828 15.8115 12.4014 14.9414 12.7969 13.8867Z" fill="black"/>
</svg>
