<svg width="32" height="32" viewBox="0 0 32 32" xmlns="http://www.w3.org/2000/svg">
<path d="M22 16C22 17.3875 21.925 18.725 21.7938 20H10.2063C10.0688 18.725 10 17.3875 10 16C10 14.6125 10.075 13.275 10.2063 12H21.7938C21.9313 13.275 22 14.6125 22 16ZM23.8 12H31.4937C31.825 13.2812 32 14.6187 32 16C32 17.3813 31.825 18.7188 31.4937 20H23.8C23.9312 18.7125 24 17.375 24 16C24 14.625 23.9312 13.2875 23.8 12ZM30.8375 10H23.5438C22.9188 6.00625 21.6812 2.6625 20.0875 0.525C24.9812 1.81875 28.9625 5.36875 30.8312 10H30.8375ZM21.5187 10H10.4812C10.8625 7.725 11.45 5.7125 12.1687 4.08125C12.825 2.60625 13.5562 1.5375 14.2625 0.8625C14.9625 0.2 15.5437 0 16 0C16.4563 0 17.0375 0.2 17.7375 0.8625C18.4437 1.5375 19.175 2.60625 19.8312 4.08125C20.5562 5.70625 21.1375 7.71875 21.5187 10ZM8.45625 10H1.1625C3.0375 5.36875 7.0125 1.81875 11.9125 0.525C10.3188 2.6625 9.08125 6.00625 8.45625 10ZM0.50625 12H8.2C8.06875 13.2875 8 14.625 8 16C8 17.375 8.06875 18.7125 8.2 20H0.50625C0.175 18.7188 0 17.3813 0 16C0 14.6187 0.175 13.2812 0.50625 12ZM12.1687 27.9125C11.4437 26.2875 10.8625 24.275 10.4812 22H21.5187C21.1375 24.275 20.55 26.2875 19.8312 27.9125C19.175 29.3875 18.4437 30.4563 17.7375 31.1313C17.0375 31.8 16.4563 32 16 32C15.5437 32 14.9625 31.8 14.2625 31.1375C13.5562 30.4625 12.825 29.3938 12.1687 27.9188V27.9125ZM8.45625 22C9.08125 25.9938 10.3188 29.3375 11.9125 31.475C7.0125 30.1813 3.0375 26.6312 1.1625 22H8.45625ZM30.8375 22C28.9625 26.6312 24.9875 30.1813 20.0938 31.475C21.6875 29.3375 22.9187 25.9938 23.55 22H30.8375Z" fill="#000000"/>
</svg>
