<svg width="20" height="19" viewBox="0 0 20 19" xmlns="http://www.w3.org/2000/svg">
<path d="M10 18.7334C14.9658 18.7334 19.0791 14.6289 19.0791 9.6543C19.0791 4.68848 14.9658 0.575195 9.99121 0.575195C5.02539 0.575195 0.920898 4.68848 0.920898 9.6543C0.920898 14.6289 5.03418 18.7334 10 18.7334ZM9.63965 14.9629L10.1406 12.9678C8.7168 12.3262 8.28613 11.9658 8.28613 11.333C8.28613 10.7617 8.55859 10.4717 8.74316 10.0938C9.17383 9.19727 8.60254 8.44141 7.57422 8.44141C5.79004 8.44141 4.86719 7.7207 4.86719 6.32324C4.86719 5.05762 5.31543 3.88867 5.78125 3.27344C6.99414 2.45605 8.44434 1.98145 9.99121 1.98145C10.3428 1.98145 10.6943 2.00781 11.0283 2.05176C11.6699 2.5 12.0215 2.84277 12.0215 3.04492C12.0215 3.61621 11.5557 3.96777 11.2041 4.36328C10.835 4.77637 10.8613 5.25098 11.2393 5.62891C11.6611 6.04199 12.1445 6.47266 12.8301 7.12305C12.918 7.20215 12.9443 7.26367 12.9443 7.31641C12.9443 7.4043 12.8916 7.46582 12.8037 7.46582C12.7334 7.46582 12.6807 7.44824 12.5576 7.36035C12.4697 7.29883 12.0039 6.99121 11.7666 6.82422C11.5293 6.66602 11.3096 6.64844 11.0195 6.74512L9.49902 7.30762C9.13867 7.43945 8.99805 7.7998 9.19141 8.15137L9.98242 9.68066L10.7734 9.67188C11.4941 9.66309 11.96 9.78613 12.2324 10.041C12.5488 10.3311 13.0234 11.1309 13.0234 11.3682C13.0234 11.79 12.8916 12.0537 12.5312 12.4492L10.0264 15.1562C9.8418 15.3584 9.56934 15.2354 9.63965 14.9629ZM3.85645 6.32324C3.85645 8.30957 5.23633 9.45215 7.66211 9.45215C7.84668 9.45215 7.95215 9.60156 7.83789 9.77734C7.43359 10.4102 7.2666 10.8145 7.2666 11.333C7.2666 12.5283 8.2334 13.1787 8.99805 13.4951L8.68164 14.7432C8.33887 16.123 9.88574 16.791 10.8789 15.7275L12.9971 13.4336C13.7178 12.6514 14.0342 12.0449 14.0342 11.3682C14.0342 10.8232 13.4277 9.83887 12.918 9.36426C12.3643 8.85449 11.8105 8.75781 10.9229 8.75781H10.5449L10.167 8.03711L11.2832 7.62402C12.0127 8.08105 12.3906 8.3623 12.8125 8.3623C13.4453 8.3623 13.8672 7.95801 13.8672 7.37793C13.8672 7.04395 13.7354 6.75391 13.4805 6.49902C12.8213 5.84863 12.5312 5.55859 12.083 5.11035C11.9863 5.02246 11.9951 4.97852 12.1094 4.84668C12.4873 4.4248 13.0322 3.7832 13.0322 3.04492C13.0322 2.88672 13.0146 2.7373 12.9531 2.58789C15.7041 3.76562 17.6729 6.50781 17.6729 9.6543C17.6729 13.8467 14.1924 17.3271 10 17.3271C5.80762 17.3271 2.32715 13.8467 2.32715 9.6543C2.32715 7.86133 2.96875 6.19141 4.02344 4.88184C3.91797 5.34766 3.85645 5.83984 3.85645 6.32324Z" fill="#000000"/>
</svg>
