<svg width="18" height="21" viewBox="0 0 18 21" fill="none" xmlns="http://www.w3.org/2000/svg">
<path d="M4.93066 -0.00878906C2.3291 -0.00878906 0.210938 2.10059 0.210938 4.70215C0.210938 5.75684 0.580078 6.80273 1.18652 7.59375C1.35352 7.82227 1.57324 7.91895 1.79297 7.91895C2.32031 7.91895 2.7334 7.32129 2.3291 6.79395C1.88086 6.22266 1.59961 5.48438 1.59961 4.70215C1.59961 2.86523 3.09375 1.38867 4.93066 1.38867C6.69727 1.38867 8.13867 2.76855 8.22656 4.52637C8.22656 4.5791 8.23535 4.63184 8.23535 4.71094C8.27051 5.12402 8.54297 5.35254 8.89453 5.35254C9.28125 5.35254 9.58887 5.09766 9.60645 4.71973C9.61523 4.64062 9.61523 4.53516 9.60645 4.41211C9.46582 1.93359 7.40918 -0.00878906 4.93066 -0.00878906ZM13.667 19.5996C17.376 18.2549 18.6416 15.1611 17.2002 11.2061L16.6025 9.5625C16.0576 8.06836 14.9854 7.37402 14.1328 7.69043C13.9219 7.76074 13.8516 7.92773 13.9219 8.12988L14.1768 8.8418C14.291 9.14941 14.1943 9.36914 14.0098 9.43066C13.8164 9.50098 13.6055 9.4043 13.4912 9.08789L13.3154 8.62207C12.9902 7.72559 12.1904 7.33887 11.4082 7.62891C11.0391 7.76074 10.9248 7.98926 11.0391 8.30566L11.3906 9.28125C11.5049 9.59766 11.4082 9.80859 11.2236 9.87012C11.0215 9.94922 10.8193 9.85254 10.6963 9.52734L10.3711 8.63086C10.0107 7.6377 9.25488 7.34766 8.47266 7.62891C8.12109 7.76074 7.98926 7.99805 8.10352 8.30566L8.79785 10.2217C8.91211 10.5381 8.81543 10.749 8.63086 10.8193C8.4375 10.8896 8.22656 10.793 8.1123 10.4766L5.80957 4.15723C5.57227 3.50684 4.9834 3.22559 4.4209 3.42773C3.82324 3.64746 3.56836 4.22754 3.80566 4.88672L7.14551 14.0537C7.22461 14.2646 7.13672 14.4229 7.00488 14.4756C6.87305 14.5195 6.74121 14.4756 6.58301 14.3086L4.3418 11.9004C3.99023 11.5225 3.60352 11.3906 3.16406 11.5576C2.54883 11.7773 2.29395 12.3486 2.4873 12.8848C2.55762 13.0781 2.66309 13.2363 2.75977 13.3682L5.67773 16.9893C8.10352 19.9951 10.8896 20.6104 13.667 19.5996Z" fill="#FFFFFF"/>
</svg>
