<svg width="17" height="17" viewBox="0 0 17 17" fill="none" xmlns="http://www.w3.org/2000/svg">
<path d="M2.88281 16.4004H13.5264C15.4248 16.4004 16.4092 15.4248 16.4092 13.5527V2.84766C16.4092 0.975586 15.4248 0 13.5264 0H2.88281C0.984375 0 0 0.966797 0 2.84766V13.5527C0 15.4248 0.984375 16.4004 2.88281 16.4004ZM2.98828 14.6777C2.1709 14.6777 1.72266 14.2559 1.72266 13.4033V2.99707C1.72266 2.14453 2.1709 1.71387 2.98828 1.71387H13.4209C14.2295 1.71387 14.6865 2.14453 14.6865 2.99707V13.4033C14.6865 14.2559 14.2295 14.6777 13.4209 14.6777H2.98828ZM4.78125 9.72949C4.78125 11.8828 6.22266 13.21 8.21777 13.21C9.66797 13.21 10.6699 12.6475 11.3643 11.3291C11.8037 10.582 12.1113 9.59766 12.4014 8.6748C12.542 8.22656 12.7266 7.67285 12.7441 7.42676C12.7529 7.13672 12.5596 6.92578 12.2607 6.9082C11.9355 6.89941 11.7246 7.09277 11.5137 7.53223L10.8281 8.99121C10.7666 9.13184 10.6963 9.18457 10.626 9.18457C10.5381 9.18457 10.4854 9.12305 10.4854 8.98242V3.84961C10.4854 3.54199 10.2305 3.28711 9.92285 3.28711C9.60645 3.28711 9.36035 3.54199 9.36035 3.84961V7.54102C9.2373 7.50586 9.10547 7.46191 8.96484 7.43555V3.14648C8.96484 2.83887 8.71875 2.58398 8.41113 2.58398C8.09473 2.58398 7.84863 2.83887 7.84863 3.14648V7.38281C7.70801 7.40039 7.56738 7.40918 7.43555 7.43555V3.55957C7.43555 3.25195 7.18066 3.00586 6.86426 3.00586C6.55664 3.00586 6.30176 3.25195 6.30176 3.55957V7.77832C6.16113 7.83984 6.03809 7.91895 5.91504 7.98926V5.08887C5.91504 4.77246 5.66016 4.51758 5.35254 4.51758C5.04492 4.51758 4.78125 4.77246 4.78125 5.08887V9.72949Z" fill="black"/>
</svg>
