<svg width="32" height="28" viewBox="0 0 32 28" xmlns="http://www.w3.org/2000/svg">
<path d="M2.975 16.7751L14.2688 27.3188C14.7375 27.7563 15.3562 28.0001 16 28.0001C16.6438 28.0001 17.2625 27.7563 17.7313 27.3188L29.025 16.7751C30.925 15.0063 32 12.5251 32 9.9313V9.5688C32 5.20005 28.8438 1.47505 24.5375 0.756303C21.6875 0.281303 18.7875 2.21255 16.75 4.25005L16 5.00005L15.25 4.25005C13.2125 2.21255 10.3125 0.281303 7.4625 0.756303C3.15625 1.47505 0 5.20005 0 9.5688V9.9313C0 12.5251 1.075 15.0063 2.975 16.7751Z" fill="#000000"/>
</svg>
