<svg width="80" height="74" viewBox="0 0 80 74" xmlns="http://www.w3.org/2000/svg">
<path d="M0 24.6798C0 41.5411 14.1761 58.2049 36.2102 72.4205C37.4344 73.2102 38.9349 74 39.9616 74C40.9883 74 42.4888 73.2102 43.7129 72.4205C65.7866 58.2049 79.9232 41.5411 79.9232 24.6798C79.9232 10.1089 69.8538 0 56.9413 0C49.3991 0 43.5155 3.43543 39.9616 8.64781C36.4867 3.47492 30.5635 0 23.0213 0C10.0694 0 0 10.1089 0 24.6798ZM8.13447 24.6403C8.13447 14.6894 14.6894 7.93703 23.4952 7.93703C30.603 7.93703 34.5912 12.2412 37.079 15.9925C38.1846 17.6115 38.9349 18.1249 39.9616 18.1249C41.0278 18.1249 41.699 17.572 42.8442 15.9925C45.5294 12.3202 49.3597 7.93703 56.428 7.93703C65.2732 7.93703 71.8282 14.6894 71.8282 24.6403C71.8282 38.54 57.3757 53.9402 40.7118 64.9968C40.3565 65.2337 40.1195 65.3917 39.9616 65.3917C39.8036 65.3917 39.5667 65.2337 39.2508 64.9968C22.587 53.9402 8.13447 38.54 8.13447 24.6403Z" fill="#000000"/>
</svg>
