<svg width="23" height="23" viewBox="0 0 23 23" xmlns="http://www.w3.org/2000/svg">
<path d="M11.5 23C14.55 23 17.4751 21.7884 19.6317 19.6317C21.7884 17.4751 23 14.55 23 11.5C23 8.45001 21.7884 5.52494 19.6317 3.36827C17.4751 1.2116 14.55 0 11.5 0C8.45001 0 5.52494 1.2116 3.36827 3.36827C1.2116 5.52494 0 8.45001 0 11.5C0 14.55 1.2116 17.4751 3.36827 19.6317C5.52494 21.7884 8.45001 23 11.5 23ZM9.70312 15.0938H10.7812V12.2188H9.70312C9.10566 12.2188 8.625 11.7381 8.625 11.1406C8.625 10.5432 9.10566 10.0625 9.70312 10.0625H11.8594C12.4568 10.0625 12.9375 10.5432 12.9375 11.1406V15.0938H13.2969C13.8943 15.0938 14.375 15.5744 14.375 16.1719C14.375 16.7693 13.8943 17.25 13.2969 17.25H9.70312C9.10566 17.25 8.625 16.7693 8.625 16.1719C8.625 15.5744 9.10566 15.0938 9.70312 15.0938ZM11.5 5.75C11.8812 5.75 12.2469 5.90145 12.5165 6.17103C12.786 6.44062 12.9375 6.80625 12.9375 7.1875C12.9375 7.56875 12.786 7.93438 12.5165 8.20397C12.2469 8.47355 11.8812 8.625 11.5 8.625C11.1188 8.625 10.7531 8.47355 10.4835 8.20397C10.214 7.93438 10.0625 7.56875 10.0625 7.1875C10.0625 6.80625 10.214 6.44062 10.4835 6.17103C10.7531 5.90145 11.1188 5.75 11.5 5.75Z" fill="#000000"/>
</svg>
