<svg width="28" height="20" viewBox="0 0 28 20" fill="none" xmlns="http://www.w3.org/2000/svg">
<path d="M10.5459 19.2959H17.498C18.9922 19.2959 19.9941 18.3115 19.9941 16.8525V2.43848C19.9941 0.979492 18.9922 0.00390625 17.498 0.00390625H10.5459C9.02539 0.00390625 8.00586 0.979492 8.00586 2.43848V16.8525C8.00586 18.3115 9.02539 19.2959 10.5459 19.2959ZM10.8535 17.4854C10.1592 17.4854 9.75488 17.1074 9.75488 16.4395V2.85156C9.75488 2.18359 10.1592 1.80566 10.8535 1.80566H11.2139V2.24512C11.2139 2.63184 11.46 2.88672 11.8467 2.88672H16.1621C16.5488 2.88672 16.7949 2.63184 16.7949 2.24512V1.80566H17.1465C17.8408 1.80566 18.2451 2.19238 18.2451 2.86035V16.4395C18.2451 17.1074 17.8408 17.4854 17.1465 17.4854H10.8535ZM3.04883 15.6572C3.34766 15.3057 3.25098 14.8662 2.91699 14.4883C1.77441 13.2227 1.1416 11.5176 1.1416 9.6543C1.1416 7.79102 1.77441 6.08594 2.91699 4.82031C3.25977 4.44238 3.34766 4.00293 3.04883 3.65137C2.74121 3.29102 2.19629 3.26465 1.80078 3.69531C0.376953 5.2334 -0.44043 7.36914 -0.44043 9.6543C-0.44043 11.9395 0.350586 14.0576 1.80078 15.6133C2.20508 16.0439 2.74121 16.0264 3.04883 15.6572ZM24.9424 15.6572C25.25 16.0264 25.7949 16.0439 26.1904 15.6133C27.6406 14.0576 28.4316 11.9395 28.4316 9.6543C28.4316 7.36914 27.6143 5.2334 26.1904 3.69531C25.7949 3.26465 25.2588 3.29102 24.9424 3.65137C24.6436 4.00293 24.7314 4.44238 25.0742 4.82031C26.2168 6.08594 26.8584 7.79102 26.8584 9.6543C26.8584 11.5176 26.2168 13.2227 25.0742 14.4883C24.7402 14.8662 24.6436 15.3057 24.9424 15.6572ZM5.62402 13.1348C5.91406 12.792 5.7998 12.3701 5.50977 11.9746C5.03516 11.3682 4.77148 10.5156 4.77148 9.6543C4.77148 8.79297 5.03516 7.94043 5.50977 7.33398C5.7998 6.93848 5.91406 6.5166 5.62402 6.16504C5.31641 5.80469 4.73633 5.78711 4.36719 6.22656C3.61133 7.13184 3.18945 8.35352 3.18945 9.6543C3.18945 10.9551 3.61133 12.1768 4.36719 13.082C4.73633 13.5215 5.31641 13.5039 5.62402 13.1348ZM22.3672 13.1348C22.6748 13.5039 23.2637 13.5215 23.624 13.082C24.3799 12.1768 24.8018 10.9551 24.8018 9.6543C24.8018 8.35352 24.3799 7.13184 23.624 6.22656C23.2637 5.78711 22.6748 5.80469 22.3672 6.16504C22.0771 6.5166 22.1914 6.93848 22.4814 7.33398C22.9561 7.94043 23.2197 8.79297 23.2197 9.6543C23.2197 10.5156 22.9561 11.3682 22.4814 11.9746C22.1914 12.3701 22.0771 12.792 22.3672 13.1348ZM11.6533 16.791H16.3555C16.6104 16.791 16.7949 16.6152 16.7949 16.3428C16.7949 16.0791 16.6104 15.9033 16.3555 15.9033H11.6533C11.3984 15.9033 11.2139 16.0791 11.2139 16.3428C11.2139 16.6152 11.3984 16.791 11.6533 16.791Z" fill="black"/>
</svg>
