<svg width="20" height="20" viewBox="0 0 20 20" fill="none" xmlns="http://www.w3.org/2000/svg">
<path d="M9.58691 13.3018L10.9316 11.9395C9.89453 11.8516 9.14746 11.5088 8.61133 10.9727C7.12598 9.48731 7.12598 7.38672 8.60254 5.91895L11.5205 2.99219C13.0059 1.51563 15.0977 1.50684 16.583 2.99219C18.0771 4.48633 18.0596 6.57813 16.5918 8.05469L15.0977 9.54004C15.3789 10.1904 15.4756 10.9814 15.3174 11.667L17.8311 9.16211C19.9932 7.00879 20.002 3.93262 17.8223 1.75293C15.6338 -0.435545 12.5752 -0.417967 10.4131 1.74414L7.35449 4.80274C5.19238 6.96485 5.18359 10.0322 7.36328 12.2119C7.87305 12.7305 8.57617 13.1172 9.58691 13.3018ZM10.4043 5.875L9.05957 7.23731C10.0967 7.33399 10.8438 7.66797 11.3799 8.2041C12.874 9.68946 12.8652 11.79 11.3887 13.2666L8.4707 16.1846C6.98535 17.6699 4.89355 17.6699 3.41699 16.1846C1.92285 14.6904 1.93164 12.6074 3.4082 11.1309L4.89355 9.63672C4.6123 8.99512 4.52441 8.2041 4.67383 7.50977L2.16016 10.0234C-0.00195312 12.1768 -0.0107422 15.2441 2.16895 17.4238C4.35742 19.6123 7.41602 19.5947 9.57812 17.4414L12.6367 14.374C14.7988 12.2119 14.8076 9.14453 12.6279 6.96485C12.1182 6.45508 11.4238 6.06836 10.4043 5.875Z" fill="#000000"/>
</svg>
