<svg width="52" height="52" viewBox="0 0 52 52" xmlns="http://www.w3.org/2000/svg">
<path fill-rule="evenodd" clip-rule="evenodd" d="M26 0C11.6406 0 0 11.6406 0 26C0 30.996 1.40913 35.6629 3.85162 39.6249L6.04027 37.4363C4.10603 34.0677 3 30.163 3 26C3 13.2975 13.2975 3 26 3C30.163 3 34.0677 4.10603 37.4363 6.04027L39.6249 3.85162C35.6629 1.40913 30.996 0 26 0ZM11.4692 47.5637C15.6176 50.3646 20.6178 52 26 52C40.3594 52 52 40.3594 52 26C52 20.6178 50.3646 15.6176 47.5637 11.4692L45.3973 13.6356C47.6781 17.2063 49 21.4488 49 26C49 38.7025 38.7025 49 26 49C21.4488 49 17.2063 47.6781 13.6356 45.3973L11.4692 47.5637Z" fill="#000000"/>
</svg>
