<svg width="14" height="19" viewBox="0 0 14 19" xmlns="http://www.w3.org/2000/svg">
<path d="M2.86914 18.2324H11.1309C12.4932 18.2324 13.1611 17.5557 13.1611 16.0791V9.83008C13.1611 8.52051 12.6338 7.84375 11.5615 7.70312V5.65527C11.5615 2.31543 9.33789 0.707031 7 0.707031C4.66211 0.707031 2.43848 2.31543 2.43848 5.65527V7.70312C1.36621 7.84375 0.838867 8.52051 0.838867 9.83008V16.0791C0.838867 17.5557 1.50684 18.2324 2.86914 18.2324ZM4.12598 5.49707C4.12598 3.44922 5.42676 2.32422 7 2.32422C8.56445 2.32422 9.87402 3.44922 9.87402 5.49707V7.67676H4.12598V5.49707ZM3.15039 16.6416C2.76367 16.6416 2.57031 16.457 2.57031 16V9.90918C2.57031 9.44336 2.76367 9.27637 3.15039 9.27637H10.8584C11.2451 9.27637 11.4297 9.44336 11.4297 9.90918V16C11.4297 16.457 11.2451 16.6416 10.8584 16.6416H3.15039Z" fill="#000000"/>
</svg>
