<svg width="15" height="18" viewBox="0 0 15 18" fill="none" xmlns="http://www.w3.org/2000/svg">
<path d="M7.42676 17.8857C7.58496 17.8857 7.82227 17.833 8.05078 17.71C13.1045 14.959 14.8623 13.6846 14.8623 10.4854V3.84961C14.8623 2.79492 14.458 2.41699 13.5703 2.03906C12.6035 1.62598 9.31641 0.483398 8.36719 0.158203C8.06836 0.0615234 7.73438 0 7.42676 0C7.12793 0 6.78516 0.0791016 6.49512 0.158203C5.5459 0.430664 2.25879 1.63477 1.29199 2.03906C0.404297 2.4082 0 2.79492 0 3.84961V10.4854C0 13.6846 1.75781 14.9414 6.81152 17.71C7.04004 17.833 7.27734 17.8857 7.42676 17.8857ZM7.42676 16.0225C7.30371 16.0225 7.18066 15.9785 6.92578 15.8203C2.91797 13.377 1.66992 12.7178 1.66992 10.1602V4.13086C1.66992 3.81445 1.73145 3.69141 1.97754 3.58594C3.27832 3.06738 5.80078 2.23242 6.96094 1.77539C7.16309 1.70508 7.30371 1.67871 7.42676 1.67871C7.55859 1.67871 7.69922 1.70508 7.90137 1.77539C9.06152 2.23242 11.5664 3.12012 12.876 3.58594C13.1309 3.68262 13.1924 3.81445 13.1924 4.13086V10.1602C13.1924 12.7354 11.8916 13.4297 7.93652 15.8203C7.68164 15.9785 7.55859 16.0225 7.42676 16.0225ZM4.28027 11.7861C4.28027 12.4541 4.5791 12.7617 5.20312 12.7617H9.65918C10.2832 12.7617 10.582 12.4541 10.582 11.7861V8.3584C10.582 7.76074 10.3359 7.45312 9.84375 7.40039V6.41602C9.84375 4.79883 8.86816 3.71777 7.43555 3.71777C5.99414 3.71777 5.02734 4.79883 5.02734 6.41602V7.40039C4.52637 7.45312 4.28027 7.76074 4.28027 8.3584V11.7861ZM6.06445 7.38281V6.32812C6.06445 5.36133 6.60938 4.71973 7.43555 4.71973C8.26172 4.71973 8.80664 5.36133 8.80664 6.32812V7.38281H6.06445Z" fill="black"/>
</svg>
