<svg width="16" height="21" viewBox="0 0 16 21" fill="none" xmlns="http://www.w3.org/2000/svg">
<path d="M14.3262 19.5029C15.4248 18.9668 15.7148 18.4746 15.7148 17.3232V3.88477C15.7148 2.38184 15.0205 1.66992 13.5791 1.66992H12.7441V1.43262C12.7441 0.500977 12.2695 0 11.4258 0C11.1445 0 10.8105 0.0703125 10.4238 0.202148C7.76953 1.05469 5.34375 1.62598 2.25 1.62598H1.58203C0.571289 1.62598 0 2.20605 0 3.12891V18.2109C0 18.9492 0.175781 19.3975 0.861328 19.7314C2.37305 20.4082 4.62305 20.8389 6.96094 20.8477C9.50977 20.8389 12.3486 20.4521 14.3262 19.5029ZM1.65234 17.4199V3.63867C1.65234 3.40137 1.77539 3.26074 2.00391 3.26074H2.42578C5.39648 3.26074 8.22656 2.64551 10.6436 1.89844C10.9248 1.80176 11.1006 1.88086 11.1006 2.14453V15.082C11.1006 15.5127 11.0391 15.6973 10.626 15.9697C8.86816 17.2002 5.82715 17.9297 1.95996 17.7363C1.74023 17.7275 1.65234 17.6309 1.65234 17.4199ZM11.8916 17.0859C12.5596 16.5762 12.7441 16.207 12.7441 15.3896V3.32227H13.5352C13.8955 3.32227 14.0625 3.50684 14.0625 3.91113V17.1475C14.0625 17.666 13.9746 17.8857 13.4736 18.0967C11.7686 18.8438 9.25488 19.3184 6.96094 19.3271C6.09961 19.3271 5.26465 19.3008 4.4209 19.2217C7.53223 19.0547 10.4326 18.1846 11.8916 17.0859ZM3.34863 5.51953V8.41992C3.34863 8.55176 3.4541 8.62207 3.55957 8.62207C5.58984 8.62207 7.67285 8.26172 9.25488 7.62891C9.33398 7.59375 9.37793 7.51465 9.37793 7.43555V4.42969C9.37793 4.22754 9.19336 4.18359 9.09668 4.21875C7.27734 4.89551 5.51074 5.21191 3.55957 5.29102C3.43652 5.2998 3.34863 5.39648 3.34863 5.51953Z" fill="black"/>
</svg>
