<svg width="20" height="18" viewBox="0 0 20 18" xmlns="http://www.w3.org/2000/svg">
<path d="M7.53027 14.8154L11.7227 17.1533C11.9336 17.2676 12.1094 17.3555 12.3291 17.4082V2.80957L8.25098 0.348633C7.9873 0.19043 7.74121 0.0761719 7.53027 0.0234375V14.8154ZM0.736328 15.9932C0.736328 16.7578 1.21973 17.1797 1.92285 17.1797C2.17773 17.1797 2.44141 17.1006 2.74023 16.9424L6.23828 15.0439V0.120117C6.04492 0.199219 5.81641 0.295898 5.5791 0.436523L1.60645 2.69531C1.00879 3.0293 0.736328 3.50391 0.736328 4.17188V15.9932ZM13.6123 17.3643C13.7178 17.3379 13.8232 17.2939 13.9199 17.2236L18.3672 14.71C18.9824 14.3672 19.2637 13.9014 19.2637 13.2334V1.47363C19.2637 0.673828 18.7715 0.27832 18.0244 0.27832C17.752 0.27832 17.4619 0.357422 17.1543 0.524414L13.6123 2.49316V17.3643Z" fill="#000000"/>
</svg>
