<svg width="63" height="75" viewBox="0 0 63 75" xmlns="http://www.w3.org/2000/svg">
<path d="M54 22.5C54 20.0147 56.0147 18 58.5 18C60.9853 18 63 20.0147 63 22.5V52.5C63 54.9853 60.9853 57 58.5 57C56.0147 57 54 54.9853 54 52.5V22.5Z" fill="#000000"/>
<path fill-rule="evenodd" clip-rule="evenodd" d="M10 0C4.47715 0 0 4.47715 0 10V65C0 70.5228 4.47715 75 10 75H37C42.5228 75 47 70.5228 47 65V10C47 4.47715 42.5228 0 37 0H10ZM17.7902 48.6436C17.0268 49.1937 16.3756 49.3285 15.848 48.9243C15.3203 48.5314 15.208 47.8802 15.5111 46.9933L17.8239 40.1337L11.9298 35.9012C11.1664 35.3623 10.852 34.7673 11.0653 34.1386C11.2786 33.5211 11.8624 33.218 12.7943 33.2292L20.0243 33.2741L22.2248 26.3809C22.5167 25.4828 22.977 25 23.6281 25C24.2905 25 24.7508 25.4828 25.0315 26.3809L27.2319 33.2741H34.2027C35.1345 33.2629 35.7295 33.566 35.9429 34.1835C36.1562 34.8122 35.8306 35.4072 35.0784 35.9461L29.4436 40.1337L31.7451 46.9933C32.0482 47.8802 31.9359 48.5314 31.4195 48.9243C30.8919 49.3285 30.2295 49.1937 29.4661 48.6436L23.6281 44.355L17.7902 48.6436Z" fill="#000000"/>
</svg>
