<svg width="12" height="12" viewBox="0 0 12 12" fill="none" xmlns="http://www.w3.org/2000/svg">
<path d="M0 1.28C0 0.573076 0.573075 0 1.28 0H6.24C6.94692 0 7.52 0.573076 7.52 1.28V10.72C7.52 11.4269 6.94692 12 6.24 12H1.28C0.573075 12 0 11.4269 0 10.72V1.28Z" fill="black"/>
<path d="M8.48 2.56C8.48 2.20654 8.76654 1.92 9.12 1.92C9.47346 1.92 9.76 2.20654 9.76 2.56V9.44C9.76 9.79346 9.47346 10.08 9.12 10.08C8.76654 10.08 8.48 9.79346 8.48 9.44V2.56Z" fill="black"/>
<path d="M10.56 4.16C10.56 3.8949 10.7749 3.68 11.04 3.68C11.3051 3.68 11.52 3.8949 11.52 4.16V7.84C11.52 8.1051 11.3051 8.32 11.04 8.32C10.7749 8.32 10.56 8.1051 10.56 7.84V4.16Z" fill="black"/>
</svg>
