<svg width="75" height="75" viewBox="0 0 75 75" fill="none" xmlns="http://www.w3.org/2000/svg">
<path fill-rule="evenodd" clip-rule="evenodd" d="M37.5 0C16.7893 0 0 16.7893 0 37.5C0 58.2107 16.7893 75 37.5 75C58.2107 75 75 58.2107 75 37.5C75 16.7893 58.2107 0 37.5 0ZM28.1328 54.7646C26.8811 55.6665 25.8135 55.8874 24.9484 55.2247C24.0833 54.5805 23.8992 53.5129 24.3962 52.0588L28.188 40.8123L18.5244 33.8729C17.2728 32.9894 16.7574 32.0139 17.1071 30.9831C17.4569 29.9707 18.414 29.4737 19.9418 29.4921L31.7957 29.5658L35.4034 18.264C35.882 16.7915 36.6367 16 37.7043 16C38.7903 16 39.5449 16.7915 40.0051 18.264L43.6128 29.5658H55.0417C56.5694 29.5474 57.545 30.0443 57.8947 31.0567C58.2444 32.0875 57.7106 33.063 56.4774 33.9466L47.2389 40.8123L51.0123 52.0588C51.5093 53.5129 51.3252 54.5805 50.4785 55.2247C49.6134 55.8874 48.5274 55.6665 47.2758 54.7646L37.7043 47.7332L28.1328 54.7646Z" fill="black"/>
</svg>
