<svg width="73" height="67" viewBox="0 0 73 67" fill="none" xmlns="http://www.w3.org/2000/svg">
<path d="M53 15.5C53 13.0147 55.0147 11 57.5 11C59.9853 11 62 13.0147 62 15.5V51.5C62 53.9853 59.9853 56 57.5 56C55.0147 56 53 53.9853 53 51.5V15.5Z" fill="black"/>
<path d="M66 24.5C66 22.567 67.567 21 69.5 21C71.433 21 73 22.567 73 24.5V42.5C73 44.433 71.433 46 69.5 46C67.567 46 66 44.433 66 42.5V24.5Z" fill="black"/>
<path fill-rule="evenodd" clip-rule="evenodd" d="M10 0C4.47715 0 0 4.47715 0 10V57C0 62.5228 4.47715 67 10 67H37C42.5228 67 47 62.5228 47 57V10C47 4.47715 42.5228 0 37 0H10ZM34 7H13C10.2386 7 8 9.23858 8 12V55C8 57.7614 10.2386 60 13 60H34C36.7614 60 39 57.7614 39 55V12C39 9.23858 36.7614 7 34 7Z" fill="black"/>
</svg>
