<svg width="73" height="75" viewBox="0 0 73 75" fill="none" xmlns="http://www.w3.org/2000/svg">
<path d="M0 10C0 4.47715 4.47715 0 10 0H37C42.5228 0 47 4.47715 47 10V65C47 70.5228 42.5228 75 37 75H10C4.47715 75 0 70.5228 0 65V10Z" fill="black"/>
<path d="M53 16.5C53 14.0147 55.0147 12 57.5 12C59.9853 12 62 14.0147 62 16.5V58.5C62 60.9853 59.9853 63 57.5 63C55.0147 63 53 60.9853 53 58.5V16.5Z" fill="black"/>
<path d="M66 26.5C66 24.567 67.567 23 69.5 23C71.433 23 73 24.567 73 26.5V48.5C73 50.433 71.433 52 69.5 52C67.567 52 66 50.433 66 48.5V26.5Z" fill="black"/>
</svg>
