<svg width="72" height="75" viewBox="0 0 72 75" xmlns="http://www.w3.org/2000/svg">
<path d="M53 16C53 13.7909 54.7909 12 57 12C59.2091 12 61 13.7909 61 16V59C61 61.2091 59.2091 63 57 63C54.7909 63 53 61.2091 53 59V16Z" fill="#000000"/>
<path d="M66 26C66 24.3431 67.3431 23 69 23C70.6569 23 72 24.3431 72 26V49C72 50.6569 70.6569 52 69 52C67.3431 52 66 50.6569 66 49V26Z" fill="#000000"/>
<path fill-rule="evenodd" clip-rule="evenodd" d="M8 0C3.58172 0 0 3.58172 0 8V67C0 71.4183 3.58172 75 8 75H39C43.4183 75 47 71.4183 47 67V8C47 3.58172 43.4183 0 39 0H8ZM17.7902 48.6436C17.0268 49.1937 16.3756 49.3285 15.848 48.9243C15.3203 48.5314 15.208 47.8802 15.5111 46.9933L17.8239 40.1337L11.9298 35.9012C11.1664 35.3623 10.852 34.7673 11.0653 34.1386C11.2786 33.5211 11.8624 33.218 12.7943 33.2292L20.0243 33.2741L22.2248 26.3809C22.5167 25.4828 22.977 25 23.6281 25C24.2905 25 24.7508 25.4828 25.0315 26.3809L27.2319 33.2741H34.2027C35.1345 33.2629 35.7295 33.566 35.9429 34.1835C36.1562 34.8122 35.8306 35.4072 35.0784 35.9461L29.4436 40.1337L31.7451 46.9933C32.0482 47.8802 31.9359 48.5314 31.4195 48.9243C30.8919 49.3285 30.2295 49.1937 29.4661 48.6436L23.6281 44.355L17.7902 48.6436Z" fill="#000000"/>
</svg>
