<svg width="19" height="19" viewBox="0 0 19 19" fill="none" xmlns="http://www.w3.org/2000/svg">
<path d="M9.08789 18.1758C14.0713 18.1758 18.1846 14.0625 18.1846 9.08789C18.1846 4.11328 14.0625 0 9.0791 0C4.10449 0 0 4.11328 0 9.08789C0 14.0625 4.11328 18.1758 9.08789 18.1758ZM9.08789 16.3652C5.05371 16.3652 1.82812 13.1221 1.82812 9.08789C1.82812 5.05371 5.05371 1.81934 9.0791 1.81934C13.1133 1.81934 16.3564 5.05371 16.3652 9.08789C16.374 13.1221 13.1221 16.3652 9.08789 16.3652ZM5.75684 9.93164H12.4102C12.9375 9.93164 13.3154 9.62402 13.3154 9.11426C13.3154 8.5957 12.9551 8.2793 12.4102 8.2793H5.75684C5.2207 8.2793 4.85156 8.5957 4.85156 9.11426C4.85156 9.62402 5.22949 9.93164 5.75684 9.93164Z" fill="black"/>
</svg>
