<svg width="61" height="75" viewBox="0 0 61 75" xmlns="http://www.w3.org/2000/svg">
<path d="M53 22C53 19.7909 54.7909 18 57 18C59.2091 18 61 19.7909 61 22V52C61 54.2091 59.2091 56 57 56C54.7909 56 53 54.2091 53 52V22Z" fill="#000000"/>
<path fill-rule="evenodd" clip-rule="evenodd" d="M8 0C3.58172 0 0 3.58172 0 8V67C0 71.4183 3.58172 75 8 75H39C43.4183 75 47 71.4183 47 67V8C47 3.58172 43.4183 0 39 0H8ZM30.8336 21.3823C31.6063 21.9323 31.8873 22.9323 31.5105 23.7886L26.5998 35.0073H33.72C34.5757 35.0073 35.3357 35.5261 35.6358 36.3011C35.9359 37.0761 35.706 37.9573 35.0675 38.5073L18.7196 52.5073C17.998 53.1198 16.9444 53.1698 16.1717 52.6198C15.399 52.0698 15.118 51.0698 15.4948 50.2136L20.4055 39.0011H13.2853C12.4359 39.0011 11.6696 38.4761 11.3695 37.7011C11.0694 36.9261 11.2993 36.0448 11.9378 35.4948L28.2857 21.4948C29.0073 20.8823 30.0609 20.8323 30.8336 21.3823Z" fill="#000000"/>
</svg>
