<svg width="75" height="75" viewBox="0 0 75 75" xmlns="http://www.w3.org/2000/svg">
<path d="M0 22C0 19.7909 1.79086 18 4 18C6.20914 18 8 19.7909 8 22V52C8 54.2091 6.20914 56 4 56C1.79086 56 0 54.2091 0 52V22Z" fill="#000000"/>
<path d="M67 22C67 19.7909 68.7909 18 71 18C73.2091 18 75 19.7909 75 22V52C75 54.2091 73.2091 56 71 56C68.7909 56 67 54.2091 67 52V22Z" fill="#000000"/>
<path fill-rule="evenodd" clip-rule="evenodd" d="M22 0C17.5817 0 14 3.58172 14 8V67C14 71.4183 17.5817 75 22 75H53C57.4183 75 61 71.4183 61 67V8C61 3.58172 57.4183 0 53 0H22ZM44.8336 21.3823C45.6063 21.9323 45.8873 22.9323 45.5105 23.7886L40.5998 35.0073H47.72C48.5757 35.0073 49.3357 35.5261 49.6358 36.3011C49.9359 37.0761 49.706 37.9573 49.0675 38.5073L32.7196 52.5073C31.998 53.1198 30.9444 53.1698 30.1717 52.6198C29.399 52.0698 29.118 51.0698 29.4948 50.2136L34.4055 39.0011H27.2853C26.4359 39.0011 25.6696 38.4761 25.3695 37.7011C25.0694 36.9261 25.2993 36.0448 25.9378 35.4948L42.2857 21.4948C43.0073 20.8823 44.0609 20.8323 44.8336 21.3823Z" fill="#000000"/>
</svg>
