<svg width="75" height="75" viewBox="0 0 75 75" xmlns="http://www.w3.org/2000/svg">
<path d="M67 22C67 19.7909 68.7909 18 71 18C73.2091 18 75 19.7909 75 22V52C75 54.2091 73.2091 56 71 56C68.7909 56 67 54.2091 67 52V22Z" fill="#000000"/>
<path d="M0 22C0 19.7909 1.79086 18 4 18C6.20914 18 8 19.7909 8 22V52C8 54.2091 6.20914 56 4 56C1.79086 56 0 54.2091 0 52V22Z" fill="#000000"/>
<path d="M44.3563 24.6137C44.6789 23.811 44.4383 22.8735 43.7768 22.3579C43.1152 21.8423 42.213 21.8892 41.5952 22.4634L27.5982 35.5879C27.0515 36.1035 26.8546 36.9297 27.1116 37.6562C27.3686 38.3828 28.0247 38.8749 28.7519 38.8749H34.8482L30.6437 49.3863C30.3211 50.189 30.5617 51.1265 31.2232 51.6421C31.8848 52.1577 32.787 52.1108 33.4048 51.5366L47.4018 38.4121C47.9485 37.8965 48.1454 37.0703 47.8884 36.3438C47.6314 35.6172 46.9808 35.1309 46.2481 35.1309H40.1518L44.3563 24.6137Z" fill="#000000"/>
<path fill-rule="evenodd" clip-rule="evenodd" d="M22 0C17.5817 0 14 3.58172 14 8V67C14 71.4183 17.5817 75 22 75H53C57.4183 75 61 71.4183 61 67V8C61 3.58172 57.4183 0 53 0H22ZM50 7H25C22.7909 7 21 8.79086 21 11V64C21 66.2091 22.7909 68 25 68H50C52.2091 68 54 66.2091 54 64V11C54 8.79086 52.2091 7 50 7ZM44.3563 24.6137C44.6789 23.811 44.4383 22.8735 43.7768 22.3579C43.1152 21.8423 42.213 21.8892 41.5952 22.4634L27.5982 35.5879C27.0515 36.1035 26.8546 36.9297 27.1116 37.6562C27.3686 38.3828 28.0247 38.8749 28.7519 38.8749H34.8482L30.6437 49.3863C30.3211 50.189 30.5617 51.1265 31.2232 51.6421C31.8848 52.1577 32.787 52.1108 33.4048 51.5366L47.4018 38.4121C47.9485 37.8965 48.1454 37.0703 47.8884 36.3438C47.6314 35.6172 46.9808 35.1309 46.2481 35.1309H40.1518L44.3563 24.6137Z" fill="#000000"/>
</svg>
