<svg width="20" height="19" viewBox="0 0 20 19" xmlns="http://www.w3.org/2000/svg">
<path d="M9.99121 18.7422C14.9746 18.7422 19.0879 14.6289 19.0879 9.6543C19.0879 4.67969 14.9658 0.566406 9.98242 0.566406C5.00781 0.566406 0.90332 4.67969 0.90332 9.6543C0.90332 14.6289 5.0166 18.7422 9.99121 18.7422ZM7.6709 7.86133C7.62695 7.52734 7.47754 7.22852 7.24902 7C7.99609 5.11914 9.17383 3.42285 10.7031 2.02539C10.7998 2.03418 10.9053 2.05176 11.0107 2.06055C9.92969 3.9502 9.2793 6.05078 9.1123 8.23047C8.62012 8.14258 8.13672 8.01953 7.6709 7.86133ZM3.66309 5.37402C4.86719 3.61621 6.77441 2.36816 8.96289 2.06055C7.74121 3.39648 6.77441 4.92578 6.12402 6.58691C5.86914 6.60449 5.64062 6.68359 5.44727 6.80664C4.80566 6.40234 4.20801 5.91895 3.66309 5.37402ZM12.8037 5.42676C12.7949 4.50391 12.9092 3.58105 13.1641 2.69336C14.79 3.44922 16.126 4.75879 16.8994 6.37598C16.0469 7.02637 15.0977 7.51855 14.0957 7.86133C13.832 7.54492 13.4453 7.34277 13.0146 7.33398C12.8828 6.70996 12.8125 6.07715 12.8037 5.42676ZM11.5996 5.42676C11.6084 6.24414 11.7051 7.05273 11.8896 7.82617C11.7578 7.97559 11.6523 8.16016 11.5996 8.35352C11.3711 8.37109 11.1514 8.37988 10.9229 8.37988C10.7207 8.37988 10.5098 8.37988 10.3076 8.3623C10.4482 6.49023 10.9668 4.67969 11.8369 3.05371C11.6699 3.81836 11.5908 4.61816 11.5996 5.42676ZM2.33594 9.6543C2.33594 8.52051 2.58203 7.44824 3.03906 6.47266C3.5752 6.98242 4.16406 7.43945 4.78809 7.82617C4.7793 7.89648 4.77051 7.95801 4.77051 8.02832C4.77051 8.50293 4.99902 8.93359 5.35938 9.19727C5.19238 10.0498 5.10449 10.9287 5.0957 11.8076C4.12012 11.333 3.19727 10.7266 2.34473 10.0059C2.33594 9.8916 2.33594 9.76855 2.33594 9.6543ZM17.6553 9.6543C17.6553 10.3486 17.5586 11.0254 17.3828 11.667C16.8906 11.9307 16.3896 12.1592 15.8799 12.3525C15.0889 11.623 14.4385 10.7793 13.9375 9.84766C14.166 9.63672 14.333 9.35547 14.3945 9.03027C15.4492 8.6875 16.4424 8.19531 17.3564 7.55371C17.5498 8.22168 17.6553 8.9248 17.6553 9.6543ZM6.2998 12.335C6.27344 11.3594 6.35254 10.3926 6.52832 9.45215C6.82715 9.39062 7.09961 9.23242 7.30176 9.0127C7.87305 9.19727 8.46191 9.34668 9.06836 9.44336C9.07715 10.5244 9.2002 11.5879 9.42871 12.625C9.2793 12.748 9.15625 12.8975 9.06836 13.0645C8.12793 12.9238 7.19629 12.6777 6.2998 12.335ZM10.9229 9.58398C11.2041 9.58398 11.4854 9.5752 11.7666 9.54883C11.9863 9.8916 12.3467 10.1289 12.7598 10.1992C13.2432 11.1396 13.8584 12.001 14.5967 12.7656C13.6475 13.0205 12.6719 13.1699 11.6963 13.2139C11.5117 12.748 11.0986 12.4053 10.6064 12.3262C10.4043 11.4297 10.29 10.5068 10.2812 9.56641C10.4922 9.58398 10.7119 9.58398 10.9229 9.58398ZM2.63477 11.7549C3.41699 12.3086 4.26074 12.7744 5.12207 13.1611C5.1748 14.0752 5.31543 14.9805 5.55273 15.8682C4.16406 14.875 3.11816 13.4248 2.63477 11.7549ZM9.99121 17.3184C8.97168 17.3184 7.99609 17.1074 7.09961 16.7383C6.72168 15.7451 6.47559 14.708 6.37012 13.6445C7.22266 13.9346 8.10156 14.1455 8.98047 14.2686C9.18262 14.8047 9.68359 15.1826 10.2812 15.209C10.5713 15.8945 10.9229 16.5625 11.3271 17.1953C10.8965 17.2744 10.4482 17.3184 9.99121 17.3184ZM11.4062 14.7607C11.5029 14.6641 11.582 14.541 11.6436 14.418C12.9971 14.3652 14.333 14.1367 15.6338 13.7148C15.8184 13.8643 16.0029 13.9961 16.1875 14.1279C15.2822 15.376 14.0166 16.3428 12.5488 16.8701C12.1006 16.2021 11.7227 15.499 11.4062 14.7607Z" fill="#000000"/>
</svg>
