<svg width="75" height="67" viewBox="0 0 75 67" xmlns="http://www.w3.org/2000/svg">
<path fill-rule="evenodd" clip-rule="evenodd" d="M0 10C0 4.47715 4.47715 0 10 0H37C42.5228 0 47 4.47715 47 10V13.5951C39.8633 17.3676 35 24.8659 35 33.5C35 42.1341 39.8633 49.6324 47 53.4049V57C47 62.5228 42.5228 67 37 67H10C4.47715 67 0 62.5228 0 57V10Z" fill="#000000"/>
<path fill-rule="evenodd" clip-rule="evenodd" d="M57.5 51C67.0146 51 75 43.0485 75 33.5C75 23.8835 67.0825 16 57.5 16C53.5782 16 49.9354 17.3261 47 19.5498C42.763 22.7595 40 27.8392 40 33.5C40 39.1808 42.763 44.2569 47 47.4603C49.9354 49.6796 53.5782 51 57.5 51ZM55.1553 31.1553H48.733C48.0146 31.1553 47.4136 31.3993 47 31.8313C46.6115 32.2371 46.3884 32.8088 46.3884 33.5C46.3884 34.1912 46.6115 34.7629 47 35.1687C47.4136 35.6007 48.0146 35.8447 48.733 35.8447H55.1553V42.267C55.1553 43.6602 56.0728 44.6116 57.5 44.6116C58.9272 44.6116 59.8447 43.6602 59.8447 42.267V35.8447H66.267C67.6602 35.8447 68.5777 34.9272 68.5777 33.5C68.5777 32.0728 67.6602 31.1553 66.267 31.1553H59.8447V24.733C59.8447 23.3398 58.9272 22.3883 57.5 22.4223C56.0728 22.4223 55.1553 23.3738 55.1553 24.733V31.1553Z" fill="#000000"/>
</svg>
