<svg width="74" height="75" viewBox="0 0 74 75" xmlns="http://www.w3.org/2000/svg">
<path fill-rule="evenodd" clip-rule="evenodd" d="M56.5 55C66.0146 55 74 47.0485 74 37.5C74 27.8835 66.0825 20 56.5 20C53.0123 20 49.7451 21.0488 47 22.8451C42.2029 25.984 39 31.4052 39 37.5C39 43.6164 42.2029 49.0317 47 52.1635C49.7451 53.9557 53.0123 55 56.5 55ZM47.733 35.1553C47.733 35.1553 47.2266 35.1875 47 35.2492C46.0168 35.5169 45.3884 36.3401 45.3884 37.5C45.3884 38.6599 46.0168 39.4831 47 39.7508C47.2266 39.8125 47.4721 39.8447 47.733 39.8447H54.1553V46.267C54.1553 47.6602 55.0728 48.6116 56.5 48.6116C57.9272 48.6116 58.8447 47.6602 58.8447 46.267V39.8447H65.267C66.6602 39.8447 67.5777 38.9272 67.5777 37.5C67.5777 36.0728 66.6602 35.1553 65.267 35.1553H58.8447V28.733C58.8447 27.3398 57.9272 26.3883 56.5 26.4223C55.0728 26.4223 54.1553 27.3738 54.1553 28.733V35.1553H47.733Z" fill="#000000"/>
<path fill-rule="evenodd" clip-rule="evenodd" d="M0 8C0 3.58172 3.58172 0 8 0H39C43.4183 0 47 3.58172 47 8V17.098C40.0259 20.351 34.9962 27.0747 34.1321 35.0481C33.9984 35.0213 33.8605 35.0073 33.72 35.0073H26.5998L31.5105 23.7886C31.8873 22.9323 31.6063 21.9323 30.8336 21.3823C30.0609 20.8323 29.0073 20.8823 28.2857 21.4948L11.9378 35.4948C11.2993 36.0448 11.0694 36.9261 11.3695 37.7011C11.6696 38.4761 12.4359 39.0011 13.2853 39.0011H20.4055L15.4948 50.2136C15.118 51.0698 15.399 52.0698 16.1717 52.6198C16.9444 53.1698 17.998 53.1198 18.7196 52.5073L34.0755 39.3568C34.748 47.5899 39.853 54.5684 47 57.902V67C47 71.4183 43.4183 75 39 75H8C3.58172 75 0 71.4183 0 67V8ZM39 37.5C39 31.4052 42.2029 25.984 47 22.8451C49.7451 21.0488 53.0123 20 56.5 20C66.0825 20 74 27.8835 74 37.5C74 47.0485 66.0146 55 56.5 55C53.0123 55 49.7451 53.9557 47 52.1635C42.2029 49.0317 39 43.6164 39 37.5ZM47 35.2492C47.2266 35.1875 47.733 35.1553 47.733 35.1553H54.1553V28.733C54.1553 27.3738 55.0728 26.4223 56.5 26.4223C57.9272 26.3883 58.8447 27.3398 58.8447 28.733V35.1553H65.267C66.6602 35.1553 67.5777 36.0728 67.5777 37.5C67.5777 38.9272 66.6602 39.8447 65.267 39.8447H58.8447V46.267C58.8447 47.6602 57.9272 48.6116 56.5 48.6116C55.0728 48.6116 54.1553 47.6602 54.1553 46.267V39.8447H47.733C47.4721 39.8447 47.2266 39.8125 47 39.7508C46.0168 39.4831 45.3884 38.6599 45.3884 37.5C45.3884 36.3401 46.0168 35.5169 47 35.2492Z" fill="#000000"/>
</svg>
