<svg width="32" height="32" viewBox="0 0 32 32" xmlns="http://www.w3.org/2000/svg">
<path d="M31.1312 0.350239C31.7625 0.787739 32.0937 1.54399 31.975 2.30024L27.975 28.3002C27.8812 28.9065 27.5125 29.4377 26.975 29.7377C26.4375 30.0377 25.7937 30.0752 25.225 29.8377L17.75 26.7315L13.4687 31.3627C12.9125 31.969 12.0375 32.169 11.2687 31.869C10.5 31.569 9.99998 30.8252 9.99998 30.0002V24.7752C9.99998 24.5252 10.0937 24.2877 10.2625 24.1065L20.7375 12.6752C21.1 12.2815 21.0875 11.6752 20.7125 11.3002C20.3375 10.9252 19.7312 10.9002 19.3375 11.2565L6.62498 22.5502L1.10623 19.7877C0.44373 19.4565 0.0187296 18.794 -2.04151e-05 18.0565C-0.0187704 17.319 0.36873 16.6315 1.00623 16.2627L29.0062 0.262739C29.675 -0.118511 30.5 -0.081011 31.1312 0.350239Z" fill="#000000"/>
</svg>
