<svg width="19" height="18" viewBox="0 0 19 18" xmlns="http://www.w3.org/2000/svg">
<path d="M0.849316 17.0185C1.33407 17.5032 2.0612 17.4473 2.88777 17.0806L17.7225 10.4494C18.1016 10.2816 18.4061 10.1014 18.6174 9.89009C19.0587 9.44884 19.0587 8.88951 18.6112 8.44204C18.4061 8.23695 18.1016 8.04429 17.7225 7.87649L2.81941 1.22665C2.07985 0.897267 1.34029 0.828904 0.855531 1.31366C0.265124 1.90407 0.482642 2.56905 0.905249 3.36454L3.14258 7.56575C3.44089 8.13752 3.70191 8.38611 4.29232 8.40475L17.6293 8.91437C17.7971 8.92058 17.8903 9.03866 17.8965 9.16917C17.9027 9.29968 17.7909 9.41155 17.6355 9.41777L4.29853 9.95224C3.74542 9.98331 3.4471 10.2319 3.14258 10.7975L0.942538 14.9117C0.495072 15.732 0.252695 16.4219 0.849316 17.0185Z" fill="#000000"/>
</svg>
