<svg width="20" height="19" viewBox="0 0 20 19" xmlns="http://www.w3.org/2000/svg">
<path d="M9.99121 18.7422C14.9746 18.7422 19.0879 14.6289 19.0879 9.6543C19.0879 4.67969 14.9658 0.566406 9.98242 0.566406C5.00781 0.566406 0.90332 4.67969 0.90332 9.6543C0.90332 14.6289 5.0166 18.7422 9.99121 18.7422ZM9.99121 16.9316C5.95703 16.9316 2.73145 13.6885 2.73145 9.6543C2.73145 5.62012 5.95703 2.38574 9.98242 2.38574C14.0166 2.38574 17.2598 5.62012 17.2686 9.6543C17.2773 13.6885 14.0254 16.9316 9.99121 16.9316ZM6.74805 10.4893H9.15625V12.9062C9.15625 13.3896 9.49902 13.7324 9.97363 13.7324C10.4658 13.7324 10.8174 13.3896 10.8174 12.9062V10.4893H13.2344C13.7178 10.4893 14.0693 10.1465 14.0693 9.66309C14.0693 9.17969 13.7266 8.82812 13.2344 8.82812H10.8174V6.41113C10.8174 5.91895 10.4658 5.57617 9.97363 5.57617C9.49902 5.57617 9.15625 5.91895 9.15625 6.41113V8.82812H6.74805C6.24707 8.82812 5.9043 9.17969 5.9043 9.66309C5.9043 10.1465 6.25586 10.4893 6.74805 10.4893Z" fill="#000000"/>
</svg>
