<svg width="20" height="19" viewBox="0 0 20 19" xmlns="http://www.w3.org/2000/svg">
<path d="M9.99121 18.7422C14.9746 18.7422 19.0879 14.6289 19.0879 9.6543C19.0879 4.67969 14.9658 0.566406 9.98242 0.566406C5.00781 0.566406 0.90332 4.67969 0.90332 9.6543C0.90332 14.6289 5.0166 18.7422 9.99121 18.7422ZM5.7373 9.66309C5.7373 9.14453 6.10645 8.78418 6.61621 8.78418H9.12109V6.2793C9.12109 5.76953 9.47266 5.40918 9.97363 5.40918C10.4922 5.40918 10.8525 5.76953 10.8525 6.2793V8.78418H13.3662C13.8672 8.78418 14.2363 9.14453 14.2363 9.66309C14.2363 10.1641 13.8672 10.5244 13.3662 10.5244H10.8525V13.0293C10.8525 13.5303 10.4922 13.8994 9.97363 13.8994C9.47266 13.8994 9.12109 13.5303 9.12109 13.0293V10.5244H6.61621C6.10645 10.5244 5.7373 10.1641 5.7373 9.66309Z" fill="#000000"/>
</svg>
