<svg width="21" height="20" viewBox="0 0 21 20" fill="none" xmlns="http://www.w3.org/2000/svg">
<path d="M2.85645 19.0283H12.2168C14.0977 19.0283 15.0732 18.0439 15.0732 16.1455V12.1904H13.3506V16.04C13.3506 16.8574 12.9199 17.3057 12.0674 17.3057H2.99707C2.14453 17.3057 1.72266 16.8574 1.72266 16.04V2.98828C1.72266 2.1709 2.14453 1.72266 2.99707 1.72266H12.0674C12.9199 1.72266 13.3506 2.1709 13.3506 2.98828V6.84668H15.0732V2.88281C15.0732 0.993164 14.0977 0 12.2168 0H2.85645C0.975586 0 0 0.993164 0 2.88281V16.1455C0 18.0439 0.975586 19.0283 2.85645 19.0283ZM8.5166 10.3184H17.376L18.6768 10.2568L18.0352 10.8018L16.7256 12.0322C16.5674 12.1729 16.4795 12.375 16.4795 12.5771C16.4795 12.9727 16.7783 13.3066 17.1826 13.3066C17.3936 13.3066 17.5518 13.2188 17.7012 13.0693L20.5488 10.125C20.751 9.91406 20.8213 9.7207 20.8213 9.50977C20.8213 9.29883 20.751 9.10547 20.5488 8.89453L17.7012 5.94141C17.5518 5.79199 17.3936 5.71289 17.1826 5.71289C16.7783 5.71289 16.4795 6.0293 16.4795 6.43359C16.4795 6.62695 16.5674 6.83789 16.7256 6.97852L18.0352 8.21777L18.6855 8.7627L17.376 8.69238H8.5166C8.08594 8.69238 7.7168 9.06152 7.7168 9.50977C7.7168 9.95801 8.08594 10.3184 8.5166 10.3184Z" fill="black"/>
</svg>
