<svg width="20" height="19" viewBox="0 0 20 19" xmlns="http://www.w3.org/2000/svg">
<path d="M9.99121 18.7422C14.9746 18.7422 19.0879 14.6289 19.0879 9.6543C19.0879 4.67969 14.9658 0.566406 9.98242 0.566406C5.00781 0.566406 0.90332 4.67969 0.90332 9.6543C0.90332 14.6289 5.0166 18.7422 9.99121 18.7422ZM9.99121 16.9316C5.95703 16.9316 2.73145 13.6885 2.73145 9.6543C2.73145 5.62012 5.95703 2.38574 9.98242 2.38574C14.0166 2.38574 17.2598 5.62012 17.2686 9.6543C17.2773 13.6885 14.0254 16.9316 9.99121 16.9316ZM9.07715 12.3525C9.75391 12.3525 10.3955 12.168 10.9404 11.834L13.0498 13.9346C13.2344 14.1367 13.4541 14.2246 13.7178 14.2246C14.1924 14.2246 14.5352 13.873 14.5352 13.3809C14.5352 13.1611 14.4297 12.9502 14.2715 12.7832L12.1533 10.665C12.5225 10.0938 12.7334 9.41699 12.7334 8.69629C12.7334 6.68359 11.0898 5.04004 9.07715 5.04004C7.07324 5.04004 5.4209 6.69238 5.4209 8.69629C5.4209 10.709 7.07324 12.3525 9.07715 12.3525ZM9.07715 11.043C7.79395 11.043 6.72168 9.98828 6.72168 8.69629C6.72168 7.41309 7.79395 6.34961 9.07715 6.34961C10.3691 6.34961 11.4238 7.4043 11.4238 8.69629C11.4238 9.98828 10.3691 11.043 9.07715 11.043Z" fill="#000000"/>
</svg>
