<svg width="20" height="19" viewBox="0 0 20 19" xmlns="http://www.w3.org/2000/svg">
<path d="M9.99121 18.7422C14.9746 18.7422 19.0879 14.6289 19.0879 9.6543C19.0879 4.67969 14.9658 0.566406 9.98242 0.566406C5.00781 0.566406 0.90332 4.67969 0.90332 9.6543C0.90332 14.6289 5.0166 18.7422 9.99121 18.7422ZM5.24512 8.66113C5.24512 6.56934 6.95898 4.84668 9.04199 4.84668C11.1338 4.84668 12.8477 6.56055 12.8477 8.66113C12.8477 9.4082 12.6191 10.1025 12.2412 10.6914L14.4385 12.8887C14.6143 13.0645 14.7109 13.2842 14.7109 13.5127C14.7109 14.0312 14.3594 14.4092 13.8584 14.4092C13.5771 14.4092 13.3574 14.3125 13.1553 14.1016L10.9668 11.9219C10.4043 12.2559 9.74512 12.458 9.04199 12.458C6.95898 12.458 5.24512 10.7441 5.24512 8.66113ZM6.60742 8.66113C6.60742 9.98828 7.70605 11.0957 9.04199 11.0957C10.3779 11.0957 11.4766 9.98828 11.4766 8.66113C11.4766 7.31641 10.3779 6.21777 9.04199 6.21777C7.70605 6.21777 6.60742 7.3252 6.60742 8.66113Z" fill="#000000"/>
</svg>
