<svg width="32" height="32" viewBox="0 0 32 32" xmlns="http://www.w3.org/2000/svg">
<path d="M26 13C26 15.8688 25.0688 18.5188 23.5 20.6688L31.4125 28.5875C32.1938 29.3687 32.1938 30.6375 31.4125 31.4188C30.6313 32.2 29.3625 32.2 28.5812 31.4188L20.6688 23.5C18.5188 25.075 15.8688 26 13 26C5.81875 26 0 20.1813 0 13C0 5.81875 5.81875 0 13 0C20.1813 0 26 5.81875 26 13ZM13 22C14.1819 22 15.3522 21.7672 16.4442 21.3149C17.5361 20.8626 18.5282 20.1997 19.364 19.364C20.1997 18.5282 20.8626 17.5361 21.3149 16.4442C21.7672 15.3522 22 14.1819 22 13C22 11.8181 21.7672 10.6478 21.3149 9.55585C20.8626 8.46392 20.1997 7.47177 19.364 6.63604C18.5282 5.80031 17.5361 5.13738 16.4442 4.68508C15.3522 4.23279 14.1819 4 13 4C11.8181 4 10.6478 4.23279 9.55585 4.68508C8.46392 5.13738 7.47177 5.80031 6.63604 6.63604C5.80031 7.47177 5.13738 8.46392 4.68508 9.55585C4.23279 10.6478 4 11.8181 4 13C4 14.1819 4.23279 15.3522 4.68508 16.4442C5.13738 17.5361 5.80031 18.5282 6.63604 19.364C7.47177 20.1997 8.46392 20.8626 9.55585 21.3149C10.6478 21.7672 11.8181 22 13 22Z" fill="#000000"/>
</svg>
