<svg width="72" height="69" viewBox="0 0 72 69" xmlns="http://www.w3.org/2000/svg">
<path d="M19.3496 67.3758C17.1741 68.9434 15.3186 69.3273 13.8149 68.1756C12.3113 67.0559 11.9914 65.2003 12.8551 62.6729L19.4456 43.1256L2.6496 31.0645C0.474119 29.5289 -0.421665 27.8333 0.186189 26.0417C0.794042 24.2822 2.45764 23.4184 5.113 23.4504L25.7161 23.5783L31.9865 3.93505C32.8183 1.37567 34.13 0 35.9856 0C37.8731 0 39.1848 1.37567 39.9846 3.93505L46.2551 23.5783L66.8582 23.4504C69.5135 23.4184 71.2091 24.2822 71.817 26.0417C72.4248 27.8333 71.4971 29.5289 69.3536 31.0645L52.5576 43.1256L59.116 62.6729C59.9798 65.2003 59.6599 67.0559 58.1882 68.1756C56.6846 69.3273 54.7971 68.9434 52.6216 67.3758L35.9856 55.1548L19.3496 67.3758Z" fill="#000000"/>
</svg>
