<svg width="22" height="14" viewBox="0 0 22 14" fill="none" xmlns="http://www.w3.org/2000/svg">
<path d="M1.29688 13.2373C1.89453 13.2373 2.21094 12.9912 2.4043 12.3584L3.3623 9.65137H8.37207L9.33008 12.3584C9.52344 12.9912 9.83984 13.2373 10.4375 13.2373C11.0703 13.2373 11.4746 12.8594 11.4746 12.2705C11.4746 12.0508 11.4395 11.8662 11.3516 11.6201L7.48438 1.16113C7.21191 0.396484 6.70215 0.0361328 5.87598 0.0361328C5.08496 0.0361328 4.5752 0.396484 4.31152 1.15234L0.417969 11.6729C0.330078 11.9014 0.294922 12.0947 0.294922 12.2881C0.294922 12.877 0.672852 13.2373 1.29688 13.2373ZM3.87207 7.99902L5.84961 2.30371H5.90234L7.87988 7.99902H3.87207ZM16.6338 13.3076C18.1455 13.3076 19.2969 12.6045 19.833 11.3477H19.9033V12.4111C19.9121 12.9824 20.2812 13.3164 20.791 13.3164C21.3271 13.3164 21.6963 12.9648 21.6963 12.376V4.1582C21.6963 3.56055 21.3271 3.20898 20.791 3.20898C20.2725 3.20898 19.9033 3.56055 19.9033 4.1582V5.21289H19.833C19.2969 3.97363 18.1016 3.22656 16.6338 3.22656C14.1904 3.22656 12.5908 5.23047 12.5908 8.2627C12.5908 11.3125 14.1904 13.3076 16.6338 13.3076ZM17.1611 11.752C15.5264 11.752 14.498 10.4072 14.498 8.27148C14.498 6.13574 15.5264 4.78223 17.1611 4.78223C18.7871 4.78223 19.8594 6.1709 19.8594 8.28027C19.8594 10.4072 18.8047 11.752 17.1611 11.752Z" fill="black"/>
</svg>
