<svg width="22" height="14" viewBox="0 0 22 14" fill="none" xmlns="http://www.w3.org/2000/svg">
<path d="M1.52539 13.2373C2.12305 13.2373 2.43945 12.9912 2.63281 12.3584L3.59082 9.65137H8.60059L9.55859 12.3584C9.75195 12.9912 10.0684 13.2373 10.666 13.2373C11.2988 13.2373 11.7031 12.8594 11.7031 12.2705C11.7031 12.0508 11.668 11.8662 11.5801 11.6201L7.71289 1.16113C7.44043 0.396484 6.93066 0.0361328 6.10449 0.0361328C5.31348 0.0361328 4.80371 0.396484 4.54004 1.15234L0.646484 11.6729C0.558594 11.9014 0.523438 12.0947 0.523438 12.2881C0.523438 12.877 0.901367 13.2373 1.52539 13.2373ZM4.10059 7.99902L6.07812 2.30371H6.13086L8.1084 7.99902H4.10059ZM16.5195 13.3076C17.8467 13.3076 19.0947 12.5957 19.6396 11.4707H19.6748V12.4551C19.6924 12.9912 20.0527 13.3164 20.5713 13.3164C21.1074 13.3164 21.4766 12.9736 21.4766 12.376V6.58398C21.4766 4.6416 19.9912 3.37598 17.6533 3.37598C15.8516 3.37598 14.4189 4.11426 13.9268 5.27441C13.8301 5.48535 13.7773 5.6875 13.7773 5.88086C13.7773 6.3291 14.1113 6.62793 14.5771 6.62793C14.9111 6.62793 15.166 6.50488 15.3506 6.23242C15.8604 5.27441 16.5459 4.85254 17.5918 4.85254C18.8574 4.85254 19.6309 5.56445 19.6309 6.71582V7.43652L16.8887 7.59473C14.5684 7.71777 13.2939 8.75488 13.2939 10.4424C13.2939 12.1562 14.6299 13.3076 16.5195 13.3076ZM17.0205 11.8838C15.9219 11.8838 15.166 11.2861 15.166 10.3721C15.166 9.50195 15.8691 8.92188 17.1436 8.84277L19.6309 8.67578V9.56348C19.6309 10.873 18.4707 11.8838 17.0205 11.8838Z" fill="#FFFFFF"/>
</svg>
