<svg width="21" height="14" viewBox="0 0 21 14" fill="none" xmlns="http://www.w3.org/2000/svg">
<path d="M1.00195 13.2012C1.59961 13.2012 1.91602 12.9551 2.10938 12.3223L3.06738 9.61523H8.07715L9.03516 12.3223C9.22852 12.9551 9.54492 13.2012 10.1426 13.2012C10.7754 13.2012 11.1797 12.8232 11.1797 12.2344C11.1797 12.0146 11.1445 11.8301 11.0566 11.584L7.18945 1.125C6.91699 0.360352 6.40723 0 5.58105 0C4.79004 0 4.28027 0.360352 4.0166 1.11621L0.123047 11.6367C0.0351562 11.8652 0 12.0586 0 12.252C0 12.8408 0.37793 13.2012 1.00195 13.2012ZM3.57715 7.96289L5.55469 2.26758H5.60742L7.58496 7.96289H3.57715ZM15.9961 13.2715C17.3232 13.2715 18.5713 12.5596 19.1162 11.4346H19.1514V12.4189C19.1689 12.9551 19.5293 13.2803 20.0479 13.2803C20.584 13.2803 20.9531 12.9375 20.9531 12.3398V6.54785C20.9531 4.60547 19.4678 3.33984 17.1299 3.33984C15.3281 3.33984 13.8955 4.07812 13.4033 5.23828C13.3066 5.44922 13.2539 5.65137 13.2539 5.84473C13.2539 6.29297 13.5879 6.5918 14.0537 6.5918C14.3877 6.5918 14.6426 6.46875 14.8271 6.19629C15.3369 5.23828 16.0225 4.81641 17.0684 4.81641C18.334 4.81641 19.1074 5.52832 19.1074 6.67969V7.40039L16.3652 7.55859C14.0449 7.68164 12.7705 8.71875 12.7705 10.4062C12.7705 12.1201 14.1064 13.2715 15.9961 13.2715ZM16.4971 11.8477C15.3984 11.8477 14.6426 11.25 14.6426 10.3359C14.6426 9.46582 15.3457 8.88574 16.6201 8.80664L19.1074 8.63965V9.52734C19.1074 10.8369 17.9473 11.8477 16.4971 11.8477Z" fill="black"/>
</svg>
