<svg width="9" height="9" viewBox="0 0 9 9" xmlns="http://www.w3.org/2000/svg">
<path d="M2.3499 8.28544C2.51074 8.28544 2.63628 8.20698 2.8285 8.02652L4.27218 6.72407H6.84569C8.02652 6.728 8.68951 6.04931 8.68951 4.88417V1.8399C8.68951 0.674761 8.02652 0 6.84569 0H1.84382C0.662992 0 0 0.674761 0 1.8399V4.88417C0 6.04931 0.678684 6.72407 1.81636 6.72407H1.97328V7.86175C1.97328 8.11675 2.11451 8.28544 2.3499 8.28544ZM2.27143 2.29105C2.13021 2.29105 2.02036 2.17336 2.02036 2.03213C2.02036 1.89482 2.13021 1.78106 2.27143 1.78106H6.37885C6.52008 1.78106 6.63384 1.89482 6.63384 2.03213C6.63384 2.17336 6.52008 2.29105 6.37885 2.29105H2.27143ZM2.27143 3.58565C2.13021 3.58565 2.02036 3.47188 2.02036 3.33065C2.02036 3.19335 2.13021 3.07566 2.27143 3.07566H6.37885C6.52008 3.07566 6.63384 3.19335 6.63384 3.33065C6.63384 3.47188 6.52008 3.58565 6.37885 3.58565H2.27143ZM2.27143 4.88417C2.13021 4.88417 2.02036 4.77041 2.02036 4.6331C2.02036 4.48795 2.13021 4.37418 2.27143 4.37418H4.94694C5.08817 4.37418 5.20194 4.48795 5.20194 4.6331C5.20194 4.77041 5.08817 4.88417 4.94694 4.88417H2.27143Z" fill="#000000"/>
</svg>
