<svg width="18" height="21" viewBox="0 0 18 21" fill="none" xmlns="http://www.w3.org/2000/svg">
<path d="M4.84277 20.4785H13.166C14.3701 20.4785 15.0732 19.8369 15.126 18.6416L15.6797 5.94141H16.8926C17.3408 5.94141 17.6836 5.58984 17.6836 5.15039C17.6836 4.71094 17.332 4.37695 16.8926 4.37695H13.0781V3.05859C13.0781 1.65234 12.1729 0.817383 10.6611 0.817383H7.32129C5.80957 0.817383 4.9043 1.65234 4.9043 3.05859V4.37695H1.10742C0.667969 4.37695 0.316406 4.71973 0.316406 5.15039C0.316406 5.59863 0.667969 5.94141 1.10742 5.94141H2.3291L2.8916 18.6416C2.93555 19.8369 3.63867 20.4785 4.84277 20.4785ZM6.73242 3.1377C6.73242 2.74219 7.00488 2.4873 7.44434 2.4873H10.5469C10.9863 2.4873 11.2588 2.74219 11.2588 3.1377V4.37695H6.73242V3.1377ZM6.17871 17.7803C5.82715 17.7803 5.58105 17.5518 5.57227 17.2002L5.30859 7.86621C5.2998 7.51465 5.5459 7.27734 5.91504 7.27734C6.2666 7.27734 6.5127 7.50586 6.52148 7.85742L6.78516 17.1914C6.80273 17.543 6.55664 17.7803 6.17871 17.7803ZM9 17.7803C8.63086 17.7803 8.38477 17.5518 8.38477 17.2002V7.85742C8.38477 7.51465 8.63086 7.27734 9 7.27734C9.36914 7.27734 9.62402 7.51465 9.62402 7.85742V17.2002C9.62402 17.5518 9.36914 17.7803 9 17.7803ZM11.8213 17.7891C11.4434 17.7891 11.1973 17.543 11.2148 17.2002L11.4785 7.85742C11.4873 7.50586 11.7334 7.27734 12.085 7.27734C12.4541 7.27734 12.7002 7.51465 12.6914 7.86621L12.4277 17.2002C12.4189 17.5518 12.1729 17.7891 11.8213 17.7891Z" fill="black"/>
</svg>
