<svg width="21" height="20" viewBox="0 0 21 20" fill="none" xmlns="http://www.w3.org/2000/svg">
<path d="M10.415 10.8193C10.626 10.8193 10.8193 10.749 11.0215 10.5469L13.8779 7.7959C14.0186 7.65527 14.0977 7.49707 14.0977 7.28613C14.0977 6.89062 13.7812 6.60059 13.3945 6.60059C13.1924 6.60059 12.999 6.67969 12.8584 6.83789L11.6807 8.08594L11.1533 8.71875L11.2412 7.40039V0.808594C11.2412 0.37793 10.8721 0 10.415 0C9.9668 0 9.59766 0.37793 9.59766 0.808594V7.40039L9.68555 8.72754L9.14941 8.08594L7.98047 6.83789C7.83984 6.67969 7.6377 6.60059 7.43555 6.60059C7.04883 6.60059 6.73242 6.89062 6.73242 7.28613C6.73242 7.49707 6.81152 7.65527 6.96094 7.7959L9.81738 10.5469C10.0195 10.749 10.2129 10.8193 10.415 10.8193ZM2.8916 19.6963H17.9297C19.8369 19.6963 20.8301 18.7119 20.8301 16.8311V11.6719C20.8301 10.7402 20.7158 10.2393 20.2939 9.69434L17.3936 5.96777C16.3389 4.60547 15.6709 3.91113 14.0625 3.91113H12.8672V5.35254H14.1416C14.7568 5.35254 15.3633 5.8623 15.7676 6.38086L18.7734 10.3359C19.0723 10.7314 18.958 10.8984 18.5098 10.8984H12.999C12.542 10.8984 12.3311 11.2236 12.3311 11.5664V11.6016C12.3311 12.5508 11.5928 13.5615 10.415 13.5615C9.22852 13.5615 8.49023 12.5508 8.49023 11.6016V11.5664C8.49023 11.2236 8.28809 10.8984 7.82227 10.8984H2.32031C1.86328 10.8984 1.7666 10.7051 2.05664 10.3359L5.0625 6.38086C5.4668 5.8623 6.07324 5.35254 6.68848 5.35254H7.96289V3.91113H6.76758C5.15918 3.91113 4.49121 4.59668 3.43652 5.96777L0.527344 9.69434C0.114258 10.248 0 10.7402 0 11.6719V16.8311C0 18.7119 0.993164 19.6963 2.8916 19.6963ZM2.97949 17.9385C2.1709 17.9385 1.73145 17.5166 1.73145 16.6729V12.4453H6.99609C7.27734 14.0098 8.63965 15.1699 10.415 15.1699C12.1904 15.1699 13.5527 14.0098 13.834 12.4453H19.0986V16.6729C19.0986 17.5166 18.6504 17.9385 17.8418 17.9385H2.97949Z" fill="black"/>
</svg>
