<svg width="22" height="17" viewBox="0 0 22 17" xmlns="http://www.w3.org/2000/svg">
<path d="M3.47656 16.3535H18.5146C20.4219 16.3535 21.415 15.3691 21.415 13.4883V8.56641C21.415 7.58203 21.2744 7.16016 20.8174 6.5625L17.9346 2.72168C16.9062 1.35938 16.3701 0.981445 14.7881 0.981445H7.21191C5.62109 0.981445 5.08496 1.35938 4.06543 2.72168L1.17383 6.5625C0.725586 7.16016 0.584961 7.58203 0.584961 8.56641V13.4883C0.584961 15.3691 1.57812 16.3535 3.47656 16.3535ZM11 10.9482C9.66406 10.9482 8.8291 9.88477 8.8291 8.78613V8.71582C8.8291 8.31152 8.58301 7.9248 8.08203 7.9248H2.79102C2.46582 7.9248 2.41309 7.66113 2.5625 7.4502L5.77051 3.14355C6.13965 2.63379 6.60547 2.44043 7.20312 2.44043H14.7969C15.3857 2.44043 15.8516 2.63379 16.2295 3.14355L19.4287 7.4502C19.5781 7.66113 19.5254 7.9248 19.2002 7.9248H13.9092C13.4082 7.9248 13.1709 8.31152 13.1709 8.71582V8.78613C13.1709 9.88477 12.3359 10.9482 11 10.9482Z" fill="#000000"/>
</svg>
