<svg width="22" height="17" viewBox="0 0 22 17" xmlns="http://www.w3.org/2000/svg">
<path d="M3.47656 16.3535H18.5146C20.4219 16.3535 21.415 15.3691 21.415 13.4883V8.27637C21.415 7.30078 21.2832 6.85254 20.8174 6.27246L17.9346 2.72168C16.8535 1.39453 16.3701 0.981445 14.7881 0.981445H7.21191C5.62109 0.981445 5.14648 1.39453 4.06543 2.72168L1.17383 6.27246C0.716797 6.85254 0.584961 7.30078 0.584961 8.27637V13.4883C0.584961 15.3691 1.57812 16.3535 3.47656 16.3535ZM11 10.2188C9.81348 10.2188 9.0752 9.20801 9.0752 8.25879V8.22363C9.0752 7.88086 8.87305 7.55566 8.40723 7.55566H2.76465C2.47461 7.55566 2.41309 7.30957 2.5625 7.125L5.73535 3.14355C6.13086 2.65137 6.5791 2.44043 7.16797 2.44043H14.832C15.4209 2.44043 15.8691 2.65137 16.2559 3.14355L19.4375 7.125C19.5781 7.30957 19.5254 7.55566 19.2354 7.55566H13.584C13.127 7.55566 12.916 7.88086 12.916 8.22363V8.25879C12.916 9.20801 12.1777 10.2188 11 10.2188ZM3.56445 14.5957C2.75586 14.5957 2.31641 14.1738 2.31641 13.3301V9.10254H7.58105C7.8623 10.667 9.22461 11.8359 11 11.8359C12.7754 11.8359 14.1377 10.667 14.4189 9.10254H19.6836V13.3301C19.6836 14.1738 19.2354 14.5957 18.4268 14.5957H3.56445Z" fill="#000000"/>
</svg>
