<svg width="17" height="10" viewBox="0 0 17 10" xmlns="http://www.w3.org/2000/svg">
<path d="M11.3368 1.8891C10.8144 1.8891 10.3923 1.46701 10.3923 0.944552C10.3923 0.422097 10.8144 0 11.3368 0H16.0596C16.5821 0 17.0042 0.422097 17.0042 0.944552V5.66731C17.0042 6.18977 16.5821 6.61186 16.0596 6.61186C15.5371 6.61186 15.115 6.18977 15.115 5.66731V3.22624L10.1148 8.22351C9.74586 8.59247 9.14666 8.59247 8.77769 8.22351L5.66953 5.11534L1.61386 9.16806C1.24489 9.53702 0.64569 9.53702 0.276724 9.16806C-0.0922414 8.79909 -0.0922414 8.19989 0.276724 7.83093L4.99948 3.10817C5.36845 2.7392 5.96765 2.7392 6.33662 3.10817L9.44773 6.21928L13.7779 1.8891H11.3368Z" fill="#000000"/>
</svg>
