<svg width="28" height="32" viewBox="0 0 28 32" xmlns="http://www.w3.org/2000/svg">
<path d="M23.1688 6.00625C21.6313 2.46875 18.1062 0 14 0C9.89375 0 6.36875 2.46875 4.83125 6.00625C3.80625 6.09375 3 6.95 3 8V12C3 13.05 3.80625 13.9062 4.83125 13.9937C6.36875 17.5312 9.89375 20 14 20C18.1062 20 21.6313 17.5312 23.1688 13.9937C24.1938 13.9062 25 13.05 25 12V8C25 6.95 24.1938 6.09375 23.1688 6.00625ZM21 9V10C21 13.3125 18.3125 16 15 16H13C9.6875 16 7 13.3125 7 10V9C7 7.34375 8.34375 6 10 6H18C19.6562 6 21 7.34375 21 9ZM11.8313 10.1687L11.4563 8.84375C11.4 8.6375 11.2125 8.5 11 8.5C10.7875 8.5 10.6 8.6375 10.5437 8.84375L10.1687 10.1687L8.84375 10.5437C8.6375 10.6 8.5 10.7875 8.5 11C8.5 11.2125 8.6375 11.4 8.84375 11.4563L10.1687 11.8313L10.5437 13.1562C10.6 13.3625 10.7875 13.5 11 13.5C11.2125 13.5 11.4 13.3625 11.4563 13.1562L11.8313 11.8313L13.1562 11.4563C13.3625 11.4 13.5 11.2125 13.5 11C13.5 10.7875 13.3625 10.6 13.1562 10.5437L11.8313 10.1687ZM7.04375 19.7812C2.91875 21.4125 0 25.4375 0 30.1437C0 31.1687 0.83125 32 1.85625 32H8V28C8 26.8937 8.89375 26 10 26H18C19.1063 26 20 26.8937 20 28V32H26.1437C27.1687 32 28 31.1687 28 30.1437C28 25.4375 25.0812 21.4125 20.9562 19.7812C18.9937 21.175 16.5938 22 14 22C11.4062 22 9.00625 21.175 7.04375 19.7812ZM11 28C10.45 28 10 28.45 10 29V32H12V29C12 28.45 11.55 28 11 28ZM17 30C17.2652 30 17.5196 29.8946 17.7071 29.7071C17.8946 29.5196 18 29.2652 18 29C18 28.7348 17.8946 28.4804 17.7071 28.2929C17.5196 28.1054 17.2652 28 17 28C16.7348 28 16.4804 28.1054 16.2929 28.2929C16.1054 28.4804 16 28.7348 16 29C16 29.2652 16.1054 29.5196 16.2929 29.7071C16.4804 29.8946 16.7348 30 17 30Z" fill="#000000"/>
</svg>
