<svg width="25" height="22" viewBox="0 0 25 22" xmlns="http://www.w3.org/2000/svg">
<path d="M12.498 0C13.1913 0 13.831 0.366205 14.1825 0.966781L24.7292 18.9352C25.0857 19.5407 25.0857 20.2878 24.739 20.8932C24.3923 21.4987 23.7429 21.8746 23.0447 21.8746H1.95129C1.25306 21.8746 0.603657 21.4987 0.256983 20.8932C-0.0896914 20.2878 -0.0848087 19.5358 0.266748 18.9352L10.8135 0.966781C11.165 0.366205 11.8046 0 12.498 0ZM12.498 6.2499C11.8486 6.2499 11.3261 6.77235 11.3261 7.42175V12.8904C11.3261 13.5398 11.8486 14.0623 12.498 14.0623C13.1474 14.0623 13.6699 13.5398 13.6699 12.8904V7.42175C13.6699 6.77235 13.1474 6.2499 12.498 6.2499ZM14.0605 17.1872C14.0605 16.7728 13.8959 16.3754 13.6028 16.0824C13.3098 15.7894 12.9124 15.6247 12.498 15.6247C12.0836 15.6247 11.6862 15.7894 11.3932 16.0824C11.1001 16.3754 10.9355 16.7728 10.9355 17.1872C10.9355 17.6016 11.1001 17.999 11.3932 18.2921C11.6862 18.5851 12.0836 18.7497 12.498 18.7497C12.9124 18.7497 13.3098 18.5851 13.6028 18.2921C13.8959 17.999 14.0605 17.6016 14.0605 17.1872Z" fill="#000000"/>
</svg>
