<svg width="22" height="16" viewBox="0 0 22 16" xmlns="http://www.w3.org/2000/svg">
<path d="M2.1055 6.55566C2.29007 6.75781 2.58011 6.74902 2.77347 6.53809C4.94437 4.24414 7.80081 3.03125 10.9912 3.03125C14.208 3.03125 17.0733 4.24414 19.2354 6.55566C19.42 6.74023 19.7012 6.73145 19.8858 6.53809L21.1162 5.29883C21.292 5.12305 21.292 4.89453 21.1514 4.72754C19.0332 2.11719 15.0869 0.245117 10.9912 0.245117C6.90433 0.245117 2.94925 2.1084 0.839873 4.72754C0.699248 4.89453 0.699248 5.12305 0.86624 5.29883L2.1055 6.55566ZM5.77933 10.2119C5.99026 10.4141 6.27151 10.3965 6.47366 10.1768C7.54593 9.00781 9.25979 8.18164 11 8.19043C12.7491 8.18164 14.4629 9.02539 15.5616 10.2031C15.7461 10.4141 16.0098 10.4053 16.2119 10.2031L17.5918 8.84961C17.7588 8.69141 17.7764 8.47168 17.627 8.2959C16.2559 6.63477 13.751 5.43945 11 5.43945C8.24026 5.43945 5.73538 6.63477 4.36429 8.2959C4.21487 8.47168 4.23245 8.68262 4.39944 8.84961L5.77933 10.2119ZM11 15.0811C11.211 15.0811 11.3955 14.9844 11.7559 14.6416L13.9092 12.5674C14.0674 12.418 14.1026 12.1719 13.9619 11.9961C13.3467 11.2139 12.2305 10.5811 11 10.5811C9.7344 10.5811 8.60062 11.2402 7.99417 12.0664C7.8887 12.2246 7.94144 12.418 8.09085 12.5674L10.2442 14.6416C10.5957 14.9756 10.7891 15.0811 11 15.0811Z" fill="#000000"/>
</svg>
