<svg width="22" height="19" viewBox="0 0 22 19" xmlns="http://www.w3.org/2000/svg">
<path d="M18.4092 17.2197C18.6904 17.4922 19.1387 17.4834 19.4023 17.2197C19.6748 16.9385 19.6748 16.499 19.4023 16.2354L3.58203 0.415052C3.30957 0.142591 2.86133 0.133802 2.58887 0.415052C2.31641 0.678724 2.3252 1.13576 2.58887 1.39943L18.4092 17.2197ZM10.7539 6.05763C10.8594 6.04005 10.9824 6.03126 11.0967 6.03126C14.3398 6.09279 17.0732 7.34083 19.2354 9.55568C19.4199 9.74025 19.7012 9.73146 19.8857 9.5381L21.1162 8.29884C21.3008 8.12306 21.292 7.89454 21.1514 7.72755C18.998 5.14357 15.0869 3.24513 11 3.24513C10.1035 3.24513 9.20703 3.33302 8.24024 3.53517L10.7539 6.05763ZM4.48731 4.87111C3.02832 5.62697 1.77149 6.61134 0.839845 7.72755C0.69922 7.89454 0.69922 8.12306 0.875001 8.29884L2.10547 9.5381C2.29883 9.73146 2.58887 9.73146 2.77344 9.52931C3.87207 8.36915 5.12012 7.49025 6.53516 6.91017L4.48731 4.87111ZM17.0732 12.3682L17.5918 11.8496C17.7676 11.6826 17.7764 11.4717 17.627 11.2959C16.7217 10.1797 15.1748 9.22169 13.5049 8.79982L17.0732 12.3682ZM8.44238 8.80861C6.74609 9.27443 5.30469 10.1797 4.36426 11.2959C4.21484 11.4717 4.23242 11.6914 4.39941 11.8496L5.7793 13.2031C5.99024 13.4053 6.27149 13.3877 6.47363 13.168C7.51953 12.0254 9.1543 11.2432 10.833 11.1992L8.44238 8.80861ZM11 13.5811C9.74317 13.5811 8.60938 14.2402 8.00293 15.0664C7.89746 15.2246 7.94141 15.418 8.09961 15.5674L10.2529 17.6416C10.6045 17.9844 10.7891 18.0811 11 18.0811C11.2197 18.0811 11.4043 17.9756 11.7559 17.6416L13.9092 15.5674C14.0674 15.418 14.1025 15.1719 13.9619 14.9961C13.3467 14.2139 12.2393 13.5811 11 13.5811Z" fill="#000000"/>
</svg>
